<mxfile host="app.diagrams.net" agent="Mozilla/5.0 (Windows NT 10.0; Win64; x64; rv:128.0) Gecko/20100101 Firefox/128.0" version="24.7.7">
  <diagram name="Seite-1" id="cYS-9EuOB4i6pcKZ9MJi">
    <mxGraphModel dx="4023" dy="3761" grid="1" gridSize="10" guides="1" tooltips="1" connect="1" arrows="1" fold="1" page="1" pageScale="1" pageWidth="827" pageHeight="1169" math="0" shadow="0">
      <root>
        <mxCell id="0" />
        <mxCell id="1" style="locked=1;" parent="0" />
        <mxCell id="hZRU2H-SfIQ9f5EC4YqQ-117" value="" style="rounded=1;whiteSpace=wrap;html=1;strokeColor=#7EA6E0;" parent="1" vertex="1">
          <mxGeometry x="155" y="-775" width="340" height="95" as="geometry" />
        </mxCell>
        <mxCell id="5YDPGhxfkZ1rQy1-W0EN-1" value="&lt;font style=&quot;font-size: 24px;&quot; color=&quot;#ffffff&quot;&gt;&lt;b&gt;Mockup Kalender Support vor Ort Startseite&lt;/b&gt;&lt;/font&gt;" style="rounded=0;whiteSpace=wrap;html=1;fillColor=#7EA6E0;strokeColor=#7EA6E0;" parent="1" vertex="1">
          <mxGeometry x="-827" y="-1140" width="827" height="70" as="geometry" />
        </mxCell>
        <mxCell id="zZJHMVHqWspqlWFaA559-3" value="" style="shape=table;childLayout=tableLayout;startSize=0;collapsible=0;recursiveResize=0;expand=0;dashed=1;" parent="1" vertex="1">
          <mxGeometry x="-801" y="-840" width="775" height="551" as="geometry" />
        </mxCell>
        <mxCell id="zZJHMVHqWspqlWFaA559-4" value="Zeitslot 1                " style="shape=tableRow;horizontal=0;swimlaneHead=0;swimlaneBody=0;top=0;left=0;bottom=0;right=0;dropTarget=0;fontStyle=0;points=[[0,0.5],[1,0.5]];portConstraint=eastwest;startSize=40;collapsible=0;recursiveResize=0;expand=0;fillColor=default;dashed=1;" parent="zZJHMVHqWspqlWFaA559-3" vertex="1">
          <mxGeometry width="775" height="170" as="geometry" />
        </mxCell>
        <mxCell id="zZJHMVHqWspqlWFaA559-5" value="Montag&#xa;Datum" style="swimlane;swimlaneHead=0;swimlaneBody=0;fontStyle=0;connectable=0;startSize=60;collapsible=0;recursiveResize=0;expand=0;dashed=1;" parent="zZJHMVHqWspqlWFaA559-4" vertex="1">
          <mxGeometry x="40" width="105" height="170" as="geometry">
            <mxRectangle width="105" height="170" as="alternateBounds" />
          </mxGeometry>
        </mxCell>
        <mxCell id="zZJHMVHqWspqlWFaA559-6" value="Dienstag&#xa;Datum" style="swimlane;swimlaneHead=0;swimlaneBody=0;fontStyle=0;connectable=0;startSize=60;collapsible=0;recursiveResize=0;expand=0;dashed=1;" parent="zZJHMVHqWspqlWFaA559-4" vertex="1">
          <mxGeometry x="145" width="105" height="170" as="geometry">
            <mxRectangle width="105" height="170" as="alternateBounds" />
          </mxGeometry>
        </mxCell>
        <mxCell id="zZJHMVHqWspqlWFaA559-7" value="Mittwoch&#xa;Datum" style="swimlane;swimlaneHead=0;swimlaneBody=0;fontStyle=0;connectable=0;startSize=60;collapsible=0;recursiveResize=0;expand=0;dashed=1;" parent="zZJHMVHqWspqlWFaA559-4" vertex="1">
          <mxGeometry x="250" width="105" height="170" as="geometry">
            <mxRectangle width="105" height="170" as="alternateBounds" />
          </mxGeometry>
        </mxCell>
        <mxCell id="zZJHMVHqWspqlWFaA559-8" value="Donnerstag&#xa;Datum" style="swimlane;swimlaneHead=0;swimlaneBody=0;fontStyle=0;connectable=0;startSize=60;collapsible=0;recursiveResize=0;expand=0;dashed=1;" parent="zZJHMVHqWspqlWFaA559-4" vertex="1">
          <mxGeometry x="355" width="105" height="170" as="geometry">
            <mxRectangle width="105" height="170" as="alternateBounds" />
          </mxGeometry>
        </mxCell>
        <mxCell id="zZJHMVHqWspqlWFaA559-9" value="Freitag&#xa;Datum" style="swimlane;swimlaneHead=0;swimlaneBody=0;fontStyle=0;connectable=0;startSize=60;collapsible=0;recursiveResize=0;expand=0;dashed=1;" parent="zZJHMVHqWspqlWFaA559-4" vertex="1">
          <mxGeometry x="460" width="105" height="170" as="geometry">
            <mxRectangle width="105" height="170" as="alternateBounds" />
          </mxGeometry>
        </mxCell>
        <mxCell id="zZJHMVHqWspqlWFaA559-10" value="Samstag&#xa;Datum" style="swimlane;swimlaneHead=0;swimlaneBody=0;fontStyle=0;connectable=0;startSize=60;collapsible=0;recursiveResize=0;expand=0;dashed=1;" parent="zZJHMVHqWspqlWFaA559-4" vertex="1">
          <mxGeometry x="565" width="105" height="170" as="geometry">
            <mxRectangle width="105" height="170" as="alternateBounds" />
          </mxGeometry>
        </mxCell>
        <mxCell id="zZJHMVHqWspqlWFaA559-11" value="Sonntag&#xa;Datum" style="swimlane;swimlaneHead=0;swimlaneBody=0;fontStyle=0;strokeColor=inherit;connectable=0;fillColor=none;startSize=60;collapsible=0;recursiveResize=0;expand=0;dashed=1;" parent="zZJHMVHqWspqlWFaA559-4" vertex="1">
          <mxGeometry x="670" width="105" height="170" as="geometry">
            <mxRectangle width="105" height="170" as="alternateBounds" />
          </mxGeometry>
        </mxCell>
        <mxCell id="zZJHMVHqWspqlWFaA559-13" value="Zeitslot 2" style="shape=tableRow;horizontal=0;swimlaneHead=0;swimlaneBody=0;top=0;left=0;bottom=0;right=0;dropTarget=0;fontStyle=0;points=[[0,0.5],[1,0.5]];portConstraint=eastwest;startSize=40;collapsible=0;recursiveResize=0;expand=0;dashed=1;" parent="zZJHMVHqWspqlWFaA559-3" vertex="1">
          <mxGeometry y="170" width="775" height="126" as="geometry" />
        </mxCell>
        <mxCell id="zZJHMVHqWspqlWFaA559-14" value="" style="swimlane;swimlaneHead=0;swimlaneBody=0;fontStyle=0;connectable=0;startSize=0;collapsible=0;recursiveResize=0;expand=0;dashed=1;" parent="zZJHMVHqWspqlWFaA559-13" vertex="1">
          <mxGeometry x="40" width="105" height="126" as="geometry">
            <mxRectangle width="105" height="126" as="alternateBounds" />
          </mxGeometry>
        </mxCell>
        <mxCell id="zZJHMVHqWspqlWFaA559-15" value="" style="swimlane;swimlaneHead=0;swimlaneBody=0;fontStyle=0;connectable=0;startSize=0;collapsible=0;recursiveResize=0;expand=0;dashed=1;" parent="zZJHMVHqWspqlWFaA559-13" vertex="1">
          <mxGeometry x="145" width="105" height="126" as="geometry">
            <mxRectangle width="105" height="126" as="alternateBounds" />
          </mxGeometry>
        </mxCell>
        <mxCell id="hZRU2H-SfIQ9f5EC4YqQ-67" value="&lt;font style=&quot;background-color: rgb(204, 204, 204);&quot; color=&quot;#ffffff&quot;&gt;geblockter Termin&lt;/font&gt;" style="rounded=0;whiteSpace=wrap;html=1;strokeColor=#969696;fillColor=#CCCCCC;" parent="zZJHMVHqWspqlWFaA559-15" vertex="1">
          <mxGeometry width="106" height="127" as="geometry" />
        </mxCell>
        <mxCell id="zZJHMVHqWspqlWFaA559-16" value="" style="swimlane;swimlaneHead=0;swimlaneBody=0;fontStyle=0;connectable=0;startSize=0;collapsible=0;recursiveResize=0;expand=0;dashed=1;" parent="zZJHMVHqWspqlWFaA559-13" vertex="1">
          <mxGeometry x="250" width="105" height="126" as="geometry">
            <mxRectangle width="105" height="126" as="alternateBounds" />
          </mxGeometry>
        </mxCell>
        <mxCell id="zZJHMVHqWspqlWFaA559-17" value="" style="swimlane;swimlaneHead=0;swimlaneBody=0;fontStyle=0;connectable=0;startSize=0;collapsible=0;recursiveResize=0;expand=0;dashed=1;" parent="zZJHMVHqWspqlWFaA559-13" vertex="1">
          <mxGeometry x="355" width="105" height="126" as="geometry">
            <mxRectangle width="105" height="126" as="alternateBounds" />
          </mxGeometry>
        </mxCell>
        <mxCell id="zZJHMVHqWspqlWFaA559-18" value="" style="swimlane;swimlaneHead=0;swimlaneBody=0;fontStyle=0;connectable=0;startSize=0;collapsible=0;recursiveResize=0;expand=0;dashed=1;" parent="zZJHMVHqWspqlWFaA559-13" vertex="1">
          <mxGeometry x="460" width="105" height="126" as="geometry">
            <mxRectangle width="105" height="126" as="alternateBounds" />
          </mxGeometry>
        </mxCell>
        <mxCell id="zZJHMVHqWspqlWFaA559-19" value="" style="swimlane;swimlaneHead=0;swimlaneBody=0;fontStyle=0;connectable=0;startSize=0;collapsible=0;recursiveResize=0;expand=0;dashed=1;" parent="zZJHMVHqWspqlWFaA559-13" vertex="1">
          <mxGeometry x="565" width="105" height="126" as="geometry">
            <mxRectangle width="105" height="126" as="alternateBounds" />
          </mxGeometry>
        </mxCell>
        <mxCell id="zZJHMVHqWspqlWFaA559-20" value="" style="swimlane;swimlaneHead=0;swimlaneBody=0;fontStyle=0;connectable=0;strokeColor=inherit;fillColor=none;startSize=0;collapsible=0;recursiveResize=0;expand=0;dashed=1;" parent="zZJHMVHqWspqlWFaA559-13" vertex="1">
          <mxGeometry x="670" width="105" height="126" as="geometry">
            <mxRectangle width="105" height="126" as="alternateBounds" />
          </mxGeometry>
        </mxCell>
        <mxCell id="zZJHMVHqWspqlWFaA559-22" value="Zeitslot 3" style="shape=tableRow;horizontal=0;swimlaneHead=0;swimlaneBody=0;top=0;left=0;bottom=0;right=0;dropTarget=0;fontStyle=0;points=[[0,0.5],[1,0.5]];portConstraint=eastwest;startSize=40;collapsible=0;recursiveResize=0;expand=0;dashed=1;" parent="zZJHMVHqWspqlWFaA559-3" vertex="1">
          <mxGeometry y="296" width="775" height="129" as="geometry" />
        </mxCell>
        <mxCell id="zZJHMVHqWspqlWFaA559-23" value="" style="swimlane;swimlaneHead=0;swimlaneBody=0;fontStyle=0;connectable=0;startSize=0;collapsible=0;recursiveResize=0;expand=0;dashed=1;" parent="zZJHMVHqWspqlWFaA559-22" vertex="1">
          <mxGeometry x="40" width="105" height="129" as="geometry">
            <mxRectangle width="105" height="129" as="alternateBounds" />
          </mxGeometry>
        </mxCell>
        <mxCell id="zZJHMVHqWspqlWFaA559-24" value="" style="swimlane;swimlaneHead=0;swimlaneBody=0;fontStyle=0;connectable=0;startSize=0;collapsible=0;recursiveResize=0;expand=0;dashed=1;" parent="zZJHMVHqWspqlWFaA559-22" vertex="1">
          <mxGeometry x="145" width="105" height="129" as="geometry">
            <mxRectangle width="105" height="129" as="alternateBounds" />
          </mxGeometry>
        </mxCell>
        <mxCell id="zZJHMVHqWspqlWFaA559-25" value="" style="swimlane;swimlaneHead=0;swimlaneBody=0;fontStyle=0;connectable=0;startSize=0;collapsible=0;recursiveResize=0;expand=0;dashed=1;" parent="zZJHMVHqWspqlWFaA559-22" vertex="1">
          <mxGeometry x="250" width="105" height="129" as="geometry">
            <mxRectangle width="105" height="129" as="alternateBounds" />
          </mxGeometry>
        </mxCell>
        <mxCell id="zZJHMVHqWspqlWFaA559-26" value="" style="swimlane;swimlaneHead=0;swimlaneBody=0;fontStyle=0;connectable=0;startSize=0;collapsible=0;recursiveResize=0;expand=0;dashed=1;" parent="zZJHMVHqWspqlWFaA559-22" vertex="1">
          <mxGeometry x="355" width="105" height="129" as="geometry">
            <mxRectangle width="105" height="129" as="alternateBounds" />
          </mxGeometry>
        </mxCell>
        <mxCell id="hZRU2H-SfIQ9f5EC4YqQ-66" value="&lt;div align=&quot;left&quot;&gt;&lt;font color=&quot;#4f688c&quot;&gt;Eintrag gebuchter Termin (der für Aufsicht relevant ist) --&amp;gt; Relevante Info anzeigen&lt;br&gt;&lt;/font&gt;&lt;/div&gt;" style="rounded=0;whiteSpace=wrap;html=1;fillColor=#dae8fc;strokeColor=#6c8ebf;" parent="zZJHMVHqWspqlWFaA559-26" vertex="1">
          <mxGeometry width="105" height="130" as="geometry" />
        </mxCell>
        <mxCell id="hZRU2H-SfIQ9f5EC4YqQ-68" value="" style="shape=flexArrow;endArrow=classic;html=1;rounded=0;width=6;endSize=5.45;strokeWidth=2;endWidth=15;" parent="zZJHMVHqWspqlWFaA559-26" edge="1">
          <mxGeometry width="50" height="50" relative="1" as="geometry">
            <mxPoint x="126" y="114" as="sourcePoint" />
            <mxPoint x="96" y="104" as="targetPoint" />
          </mxGeometry>
        </mxCell>
        <mxCell id="zZJHMVHqWspqlWFaA559-27" value="" style="swimlane;swimlaneHead=0;swimlaneBody=0;fontStyle=0;connectable=0;startSize=0;collapsible=0;recursiveResize=0;expand=0;dashed=1;" parent="zZJHMVHqWspqlWFaA559-22" vertex="1">
          <mxGeometry x="460" width="105" height="129" as="geometry">
            <mxRectangle width="105" height="129" as="alternateBounds" />
          </mxGeometry>
        </mxCell>
        <mxCell id="zZJHMVHqWspqlWFaA559-28" value="" style="swimlane;swimlaneHead=0;swimlaneBody=0;fontStyle=0;connectable=0;startSize=0;collapsible=0;recursiveResize=0;expand=0;dashed=1;" parent="zZJHMVHqWspqlWFaA559-22" vertex="1">
          <mxGeometry x="565" width="105" height="129" as="geometry">
            <mxRectangle width="105" height="129" as="alternateBounds" />
          </mxGeometry>
        </mxCell>
        <mxCell id="zZJHMVHqWspqlWFaA559-29" value="" style="swimlane;swimlaneHead=0;swimlaneBody=0;fontStyle=0;connectable=0;strokeColor=inherit;fillColor=none;startSize=0;collapsible=0;recursiveResize=0;expand=0;dashed=1;" parent="zZJHMVHqWspqlWFaA559-22" vertex="1">
          <mxGeometry x="670" width="105" height="129" as="geometry">
            <mxRectangle width="105" height="129" as="alternateBounds" />
          </mxGeometry>
        </mxCell>
        <mxCell id="zZJHMVHqWspqlWFaA559-31" value="Zeitslot 4" style="shape=tableRow;horizontal=0;swimlaneHead=0;swimlaneBody=0;top=0;left=0;bottom=0;right=0;dropTarget=0;fontStyle=0;points=[[0,0.5],[1,0.5]];portConstraint=eastwest;startSize=40;collapsible=0;recursiveResize=0;expand=0;dashed=1;" parent="zZJHMVHqWspqlWFaA559-3" vertex="1">
          <mxGeometry y="425" width="775" height="126" as="geometry" />
        </mxCell>
        <mxCell id="zZJHMVHqWspqlWFaA559-32" value="" style="swimlane;swimlaneHead=0;swimlaneBody=0;fontStyle=0;connectable=0;strokeColor=inherit;fillColor=none;startSize=0;collapsible=0;recursiveResize=0;expand=0;dashed=1;" parent="zZJHMVHqWspqlWFaA559-31" vertex="1">
          <mxGeometry x="40" width="105" height="126" as="geometry">
            <mxRectangle width="105" height="126" as="alternateBounds" />
          </mxGeometry>
        </mxCell>
        <mxCell id="zZJHMVHqWspqlWFaA559-33" value="" style="swimlane;swimlaneHead=0;swimlaneBody=0;fontStyle=0;connectable=0;strokeColor=inherit;fillColor=none;startSize=0;collapsible=0;recursiveResize=0;expand=0;dashed=1;" parent="zZJHMVHqWspqlWFaA559-31" vertex="1">
          <mxGeometry x="145" width="105" height="126" as="geometry">
            <mxRectangle width="105" height="126" as="alternateBounds" />
          </mxGeometry>
        </mxCell>
        <mxCell id="zZJHMVHqWspqlWFaA559-34" value="" style="swimlane;swimlaneHead=0;swimlaneBody=0;fontStyle=0;connectable=0;strokeColor=inherit;fillColor=none;startSize=0;collapsible=0;recursiveResize=0;expand=0;dashed=1;" parent="zZJHMVHqWspqlWFaA559-31" vertex="1">
          <mxGeometry x="250" width="105" height="126" as="geometry">
            <mxRectangle width="105" height="126" as="alternateBounds" />
          </mxGeometry>
        </mxCell>
        <mxCell id="zZJHMVHqWspqlWFaA559-35" value="" style="swimlane;swimlaneHead=0;swimlaneBody=0;fontStyle=0;connectable=0;strokeColor=inherit;fillColor=none;startSize=0;collapsible=0;recursiveResize=0;expand=0;dashed=1;" parent="zZJHMVHqWspqlWFaA559-31" vertex="1">
          <mxGeometry x="355" width="105" height="126" as="geometry">
            <mxRectangle width="105" height="126" as="alternateBounds" />
          </mxGeometry>
        </mxCell>
        <mxCell id="zZJHMVHqWspqlWFaA559-36" value="" style="swimlane;swimlaneHead=0;swimlaneBody=0;fontStyle=0;connectable=0;strokeColor=inherit;fillColor=none;startSize=0;collapsible=0;recursiveResize=0;expand=0;dashed=1;" parent="zZJHMVHqWspqlWFaA559-31" vertex="1">
          <mxGeometry x="460" width="105" height="126" as="geometry">
            <mxRectangle width="105" height="126" as="alternateBounds" />
          </mxGeometry>
        </mxCell>
        <mxCell id="zZJHMVHqWspqlWFaA559-37" value="" style="swimlane;swimlaneHead=0;swimlaneBody=0;fontStyle=0;connectable=0;strokeColor=inherit;fillColor=none;startSize=0;collapsible=0;recursiveResize=0;expand=0;dashed=1;" parent="zZJHMVHqWspqlWFaA559-31" vertex="1">
          <mxGeometry x="565" width="105" height="126" as="geometry">
            <mxRectangle width="105" height="126" as="alternateBounds" />
          </mxGeometry>
        </mxCell>
        <mxCell id="zZJHMVHqWspqlWFaA559-38" value="" style="swimlane;swimlaneHead=0;swimlaneBody=0;fontStyle=0;connectable=0;strokeColor=inherit;fillColor=none;startSize=0;collapsible=0;recursiveResize=0;expand=0;dashed=1;" parent="zZJHMVHqWspqlWFaA559-31" vertex="1">
          <mxGeometry x="670" width="105" height="126" as="geometry">
            <mxRectangle width="105" height="126" as="alternateBounds" />
          </mxGeometry>
        </mxCell>
        <mxCell id="hZRU2H-SfIQ9f5EC4YqQ-3" value="" style="shape=flexArrow;endArrow=classic;html=1;rounded=0;endWidth=8;endSize=4;fillColor=#dae8fc;strokeColor=#6c8ebf;" parent="1" edge="1">
          <mxGeometry width="50" height="50" relative="1" as="geometry">
            <mxPoint x="-770" y="-865.5" as="sourcePoint" />
            <mxPoint x="-810" y="-865.5" as="targetPoint" />
          </mxGeometry>
        </mxCell>
        <mxCell id="hZRU2H-SfIQ9f5EC4YqQ-5" value="" style="shape=flexArrow;endArrow=classic;html=1;rounded=0;endWidth=8;endSize=4;fillColor=#dae8fc;strokeColor=#6c8ebf;" parent="1" edge="1">
          <mxGeometry width="50" height="50" relative="1" as="geometry">
            <mxPoint x="-50" y="-865.5" as="sourcePoint" />
            <mxPoint x="-10" y="-865.5" as="targetPoint" />
          </mxGeometry>
        </mxCell>
        <mxCell id="hZRU2H-SfIQ9f5EC4YqQ-6" value="&lt;div&gt;&lt;font style=&quot;font-size: 25px;&quot;&gt;Monat&lt;br&gt;&lt;/font&gt;&lt;/div&gt;&lt;div&gt;&lt;font style=&quot;font-size: 25px;&quot;&gt;Kalenderwoche xx&lt;/font&gt;&lt;/div&gt;" style="text;html=1;align=center;verticalAlign=middle;whiteSpace=wrap;rounded=0;fontColor=#7EA6E0;" parent="1" vertex="1">
          <mxGeometry x="-558.5" y="-920" width="290" height="60" as="geometry" />
        </mxCell>
        <mxCell id="hZRU2H-SfIQ9f5EC4YqQ-7" value="KW xx" style="text;html=1;align=center;verticalAlign=middle;whiteSpace=wrap;rounded=0;" parent="1" vertex="1">
          <mxGeometry x="-770" y="-880" width="60" height="30" as="geometry" />
        </mxCell>
        <mxCell id="hZRU2H-SfIQ9f5EC4YqQ-9" value="KW xx" style="text;html=1;align=center;verticalAlign=middle;whiteSpace=wrap;rounded=0;" parent="1" vertex="1">
          <mxGeometry x="-110" y="-880" width="60" height="30" as="geometry" />
        </mxCell>
        <mxCell id="hZRU2H-SfIQ9f5EC4YqQ-38" style="edgeStyle=orthogonalEdgeStyle;rounded=0;orthogonalLoop=1;jettySize=auto;html=1;strokeColor=#ABABAB;exitX=1.002;exitY=0.567;exitDx=0;exitDy=0;exitPerimeter=0;" parent="1" source="hZRU2H-SfIQ9f5EC4YqQ-110" edge="1">
          <mxGeometry relative="1" as="geometry">
            <mxPoint x="-260" y="-973" as="targetPoint" />
          </mxGeometry>
        </mxCell>
        <mxCell id="hZRU2H-SfIQ9f5EC4YqQ-37" style="edgeStyle=orthogonalEdgeStyle;rounded=0;orthogonalLoop=1;jettySize=auto;html=1;strokeColor=#ABABAB;" parent="1" source="hZRU2H-SfIQ9f5EC4YqQ-28" edge="1">
          <mxGeometry relative="1" as="geometry">
            <mxPoint x="-965" y="-920" as="targetPoint" />
          </mxGeometry>
        </mxCell>
        <mxCell id="hZRU2H-SfIQ9f5EC4YqQ-28" value="Monat/KW" style="html=1;shadow=0;dashed=0;shape=mxgraph.bootstrap.rrect;rSize=5;fillColor=#ffffff;strokeColor=#999999;align=left;spacing=15;fontSize=14;fontColor=#6C767D;" parent="1" vertex="1">
          <mxGeometry x="-810" y="-990" width="160" height="30" as="geometry" />
        </mxCell>
        <mxCell id="hZRU2H-SfIQ9f5EC4YqQ-29" value="" style="shape=triangle;direction=south;fillColor=#343A40;strokeColor=none;perimeter=none;sketch=0;" parent="hZRU2H-SfIQ9f5EC4YqQ-28" vertex="1">
          <mxGeometry x="1" y="0.5" width="7" height="3" relative="1" as="geometry">
            <mxPoint x="-17" y="1" as="offset" />
          </mxGeometry>
        </mxCell>
        <mxCell id="hZRU2H-SfIQ9f5EC4YqQ-30" value="" style="shape=triangle;direction=north;fillColor=#343A40;strokeColor=none;perimeter=none;sketch=0;" parent="hZRU2H-SfIQ9f5EC4YqQ-28" vertex="1">
          <mxGeometry x="1" y="0.5" width="7" height="3" relative="1" as="geometry">
            <mxPoint x="-17" y="-4" as="offset" />
          </mxGeometry>
        </mxCell>
        <mxCell id="hZRU2H-SfIQ9f5EC4YqQ-53" value="" style="html=1;shadow=0;dashed=0;shape=mxgraph.bootstrap.rrect;rSize=5;strokeColor=#DFDFDF;html=1;whiteSpace=wrap;fillColor=#FFFFFF;fontColor=#000000;" parent="1" vertex="1">
          <mxGeometry x="-250" y="-1070" width="200" height="190" as="geometry" />
        </mxCell>
        <mxCell id="hZRU2H-SfIQ9f5EC4YqQ-54" value="Institut" style="html=1;shadow=0;dashed=0;shape=mxgraph.bootstrap.topButton;rSize=5;strokeColor=inherit;fillColor=#ffffff;fontColor=#6C767D;perimeter=none;whiteSpace=wrap;resizeWidth=1;align=left;spacing=10;" parent="hZRU2H-SfIQ9f5EC4YqQ-53" vertex="1">
          <mxGeometry width="200" height="30" relative="1" as="geometry" />
        </mxCell>
        <mxCell id="hZRU2H-SfIQ9f5EC4YqQ-55" value="&lt;font color=&quot;#ababab&quot;&gt;Freitexsuch (Prüfungsname / Titel&lt;/font&gt;" style="strokeColor=inherit;fillColor=inherit;gradientColor=inherit;fontColor=inherit;html=1;shadow=0;dashed=0;perimeter=none;whiteSpace=wrap;resizeWidth=1;align=left;spacing=10;" parent="hZRU2H-SfIQ9f5EC4YqQ-53" vertex="1">
          <mxGeometry width="200" height="30" relative="1" as="geometry">
            <mxPoint y="30" as="offset" />
          </mxGeometry>
        </mxCell>
        <mxCell id="hZRU2H-SfIQ9f5EC4YqQ-56" value="Zeitslot" style="strokeColor=inherit;fillColor=inherit;gradientColor=inherit;fontColor=inherit;html=1;shadow=0;dashed=0;perimeter=none;whiteSpace=wrap;resizeWidth=1;align=left;spacing=10;" parent="hZRU2H-SfIQ9f5EC4YqQ-53" vertex="1">
          <mxGeometry width="200" height="30" relative="1" as="geometry">
            <mxPoint y="60" as="offset" />
          </mxGeometry>
        </mxCell>
        <mxCell id="hZRU2H-SfIQ9f5EC4YqQ-57" value="Raum" style="strokeColor=inherit;fillColor=inherit;gradientColor=inherit;fontColor=inherit;html=1;shadow=0;dashed=0;perimeter=none;whiteSpace=wrap;resizeWidth=1;align=left;spacing=10;" parent="hZRU2H-SfIQ9f5EC4YqQ-53" vertex="1">
          <mxGeometry width="200" height="30" relative="1" as="geometry">
            <mxPoint y="90" as="offset" />
          </mxGeometry>
        </mxCell>
        <mxCell id="hZRU2H-SfIQ9f5EC4YqQ-58" value="Status" style="strokeColor=inherit;fillColor=inherit;gradientColor=inherit;fontColor=inherit;html=1;shadow=0;dashed=0;shape=mxgraph.bootstrap.bottomButton;rSize=5;perimeter=none;whiteSpace=wrap;resizeWidth=1;resizeHeight=0;align=left;spacing=10;" parent="hZRU2H-SfIQ9f5EC4YqQ-53" vertex="1">
          <mxGeometry y="1" width="200" height="30" relative="1" as="geometry">
            <mxPoint y="-40" as="offset" />
          </mxGeometry>
        </mxCell>
        <mxCell id="e1TnNH38wNG9se1s8yBi-11" value="Einrichtung / Fakultät" style="strokeColor=inherit;fillColor=inherit;gradientColor=inherit;fontColor=inherit;html=1;shadow=0;dashed=0;shape=mxgraph.bootstrap.bottomButton;rSize=5;perimeter=none;whiteSpace=wrap;resizeWidth=1;resizeHeight=0;align=left;spacing=10;" parent="hZRU2H-SfIQ9f5EC4YqQ-53" vertex="1">
          <mxGeometry x="-4.547473508864641e-13" y="120" width="200" height="30" as="geometry" />
        </mxCell>
        <mxCell id="hZRU2H-SfIQ9f5EC4YqQ-59" value="" style="line;strokeWidth=1;html=1;dashed=1;" parent="1" vertex="1">
          <mxGeometry x="-800" y="-785" width="40" height="10" as="geometry" />
        </mxCell>
        <mxCell id="hZRU2H-SfIQ9f5EC4YqQ-72" value="" style="rounded=1;whiteSpace=wrap;html=1;arcSize=2;strokeColor=#4F688C;" parent="1" vertex="1">
          <mxGeometry x="95" y="-980" width="440" height="550" as="geometry" />
        </mxCell>
        <mxCell id="hZRU2H-SfIQ9f5EC4YqQ-73" value="&lt;font style=&quot;font-size: 16px;&quot; color=&quot;#000000&quot;&gt;Nach dem Klicken auf den Termin, öffnet sich die Detailansicht mit allen Angaben zum Termin (Die Ansicht liegt über dem Kalender)&lt;/font&gt;" style="text;html=1;align=center;verticalAlign=middle;whiteSpace=wrap;rounded=0;fontColor=#ABABAB;" parent="1" vertex="1">
          <mxGeometry x="75" y="-1170" width="475" height="100" as="geometry" />
        </mxCell>
        <mxCell id="hZRU2H-SfIQ9f5EC4YqQ-84" value="" style="html=1;verticalLabelPosition=bottom;align=center;labelBackgroundColor=#ffffff;verticalAlign=top;strokeWidth=2;strokeColor=#7EA6E0;shadow=0;dashed=0;shape=mxgraph.ios7.icons.edit;" parent="1" vertex="1">
          <mxGeometry x="108" y="-649.4" width="29.4" height="29.4" as="geometry" />
        </mxCell>
        <mxCell id="hZRU2H-SfIQ9f5EC4YqQ-96" value="&lt;font color=&quot;#ffffff&quot;&gt;&lt;span style=&quot;font-size: 15px; font-weight: 400;&quot;&gt;Kontakt aufnehmen&lt;/span&gt;&lt;/font&gt;" style="strokeWidth=1;shadow=0;dashed=0;align=center;html=1;shape=mxgraph.mockup.buttons.button;strokeColor=#A680B8;mainText=;buttonStyle=round;fontSize=17;fontStyle=1;fillColor=#CDA2BE;whiteSpace=wrap;" parent="1" vertex="1">
          <mxGeometry x="415" y="-485" width="110" height="40" as="geometry" />
        </mxCell>
        <mxCell id="hZRU2H-SfIQ9f5EC4YqQ-110" value="Filterkategorie" style="html=1;shadow=0;dashed=0;shape=mxgraph.bootstrap.rrect;rSize=5;strokeColor=#ABABAB;strokeWidth=1;fillColor=#ffffff;fontColor=#777777;whiteSpace=wrap;align=left;verticalAlign=middle;fontStyle=0;fontSize=14;spacingRight=0;spacing=17;" parent="1" vertex="1">
          <mxGeometry x="-630" y="-990" width="290" height="30" as="geometry" />
        </mxCell>
        <mxCell id="hZRU2H-SfIQ9f5EC4YqQ-111" value="" style="shape=triangle;direction=south;fillColor=#495057;strokeColor=none;perimeter=none;" parent="hZRU2H-SfIQ9f5EC4YqQ-110" vertex="1">
          <mxGeometry x="1" y="0.5" width="10" height="5" relative="1" as="geometry">
            <mxPoint x="-17" y="-2.5" as="offset" />
          </mxGeometry>
        </mxCell>
        <mxCell id="Mjstm2Iupr-ztOas4ZXs-3" value="" style="edgeStyle=orthogonalEdgeStyle;rounded=0;orthogonalLoop=1;jettySize=auto;html=1;" edge="1" parent="1" source="hZRU2H-SfIQ9f5EC4YqQ-118" target="hZRU2H-SfIQ9f5EC4YqQ-122">
          <mxGeometry relative="1" as="geometry" />
        </mxCell>
        <mxCell id="hZRU2H-SfIQ9f5EC4YqQ-118" value="&lt;div align=&quot;left&quot;&gt;&lt;font color=&quot;#4f688c&quot;&gt;eigene Notizen (nur von der eingeloggten Person lesbar)&lt;br&gt;&lt;/font&gt;&lt;/div&gt;&lt;div align=&quot;left&quot;&gt;&lt;font color=&quot;#4f688c&quot;&gt;&lt;br&gt;&lt;/font&gt;&lt;/div&gt;&lt;div align=&quot;left&quot;&gt;&lt;font color=&quot;#4f688c&quot;&gt;&lt;br&gt;&lt;/font&gt;&lt;/div&gt;&lt;div align=&quot;left&quot;&gt;&lt;font color=&quot;#4f688c&quot;&gt;&lt;br&gt;&lt;/font&gt;&lt;/div&gt;&lt;div align=&quot;left&quot;&gt;&lt;font color=&quot;#4f688c&quot;&gt;&lt;br&gt;&lt;/font&gt;&lt;/div&gt;" style="rounded=1;whiteSpace=wrap;html=1;strokeColor=#A9C4EB;align=left;" parent="1" vertex="1">
          <mxGeometry x="155" y="-649.4" width="320" height="90" as="geometry" />
        </mxCell>
        <mxCell id="hZRU2H-SfIQ9f5EC4YqQ-116" value="&lt;font size=&quot;1&quot;&gt;&lt;u style=&quot;font-size: 14px;&quot;&gt;Bearbeiten&lt;/u&gt;&lt;/font&gt;" style="html=1;shadow=0;dashed=0;shape=mxgraph.bootstrap.rrect;rSize=5;strokeColor=none;strokeWidth=1;fillColor=none;fontColor=#0085FC;whiteSpace=wrap;align=center;verticalAlign=middle;spacingLeft=0;fontStyle=0;fontSize=16;spacing=5;" parent="1" vertex="1">
          <mxGeometry x="375" y="-590" width="110" height="30.6" as="geometry" />
        </mxCell>
        <mxCell id="hZRU2H-SfIQ9f5EC4YqQ-122" value="&lt;font color=&quot;#ababab&quot;&gt;Nach dem Klicken auf &quot;Bearbeiten&quot; wird öffnet sich Textfeld, in das eigene Notizen eingetragen werden können&lt;/font&gt;" style="text;html=1;align=center;verticalAlign=middle;whiteSpace=wrap;rounded=0;" parent="1" vertex="1">
          <mxGeometry x="550" y="-654.4" width="173.5" height="100" as="geometry" />
        </mxCell>
        <mxCell id="hZRU2H-SfIQ9f5EC4YqQ-124" value="&lt;div&gt;&lt;font style=&quot;font-size: 15px;&quot; color=&quot;#4f688c&quot;&gt;Checkliste&lt;/font&gt;&lt;/div&gt;" style="strokeWidth=1;shadow=0;dashed=0;align=center;html=1;shape=mxgraph.mockup.buttons.button;strokeColor=#6c8ebf;mainText=;buttonStyle=round;fontSize=17;fontStyle=1;fillColor=#dae8fc;whiteSpace=wrap;" parent="1" vertex="1">
          <mxGeometry x="145" y="-475" width="110" height="30" as="geometry" />
        </mxCell>
        <mxCell id="Mjstm2Iupr-ztOas4ZXs-2" value="" style="edgeStyle=orthogonalEdgeStyle;rounded=0;orthogonalLoop=1;jettySize=auto;html=1;" edge="1" parent="1" source="hZRU2H-SfIQ9f5EC4YqQ-126" target="hZRU2H-SfIQ9f5EC4YqQ-124">
          <mxGeometry relative="1" as="geometry" />
        </mxCell>
        <mxCell id="hZRU2H-SfIQ9f5EC4YqQ-126" value="&lt;font color=&quot;#ababab&quot;&gt;Es öffnet sich der Bereich / das Modul mit den Checklisten - idealerweise mit den hervorgehobenen persönlichen Checklistenelementen&lt;br&gt;&lt;/font&gt;" style="text;html=1;align=center;verticalAlign=middle;whiteSpace=wrap;rounded=0;" parent="1" vertex="1">
          <mxGeometry x="107.5" y="-350" width="185" height="100" as="geometry" />
        </mxCell>
        <mxCell id="hZRU2H-SfIQ9f5EC4YqQ-128" value="Termine für die ich gebucht bin " style="text;html=1;align=center;verticalAlign=middle;whiteSpace=wrap;rounded=0;fontColor=#ABABAB;" parent="1" vertex="1">
          <mxGeometry x="-1070" y="-850" width="210" height="100" as="geometry" />
        </mxCell>
        <mxCell id="hZRU2H-SfIQ9f5EC4YqQ-131" value="" style="html=1;shadow=0;dashed=0;shape=mxgraph.bootstrap.rrect;rSize=5;strokeColor=#DFDFDF;html=1;whiteSpace=wrap;fillColor=#FFFFFF;fontColor=#000000;" parent="1" vertex="1">
          <mxGeometry x="-1050" y="-910" width="150" height="90" as="geometry" />
        </mxCell>
        <mxCell id="hZRU2H-SfIQ9f5EC4YqQ-132" value="&lt;font color=&quot;#ababab&quot;&gt;Tag&lt;/font&gt;" style="html=1;shadow=0;dashed=0;shape=mxgraph.bootstrap.topButton;rSize=5;strokeColor=inherit;fillColor=#ffffff;fontColor=#6C767D;perimeter=none;whiteSpace=wrap;resizeWidth=1;align=left;spacing=10;" parent="hZRU2H-SfIQ9f5EC4YqQ-131" vertex="1">
          <mxGeometry width="150" height="30" relative="1" as="geometry" />
        </mxCell>
        <mxCell id="hZRU2H-SfIQ9f5EC4YqQ-133" value="&lt;font color=&quot;#ababab&quot;&gt;persönliche Termine&lt;/font&gt;" style="strokeColor=inherit;fillColor=inherit;gradientColor=inherit;fontColor=inherit;html=1;shadow=0;dashed=0;perimeter=none;whiteSpace=wrap;resizeWidth=1;align=left;spacing=10;" parent="hZRU2H-SfIQ9f5EC4YqQ-131" vertex="1">
          <mxGeometry width="150" height="30" relative="1" as="geometry">
            <mxPoint y="30" as="offset" />
          </mxGeometry>
        </mxCell>
        <mxCell id="hZRU2H-SfIQ9f5EC4YqQ-134" value="..." style="strokeColor=inherit;fillColor=inherit;gradientColor=inherit;fontColor=inherit;html=1;shadow=0;dashed=0;perimeter=none;whiteSpace=wrap;resizeWidth=1;align=left;spacing=10;" parent="hZRU2H-SfIQ9f5EC4YqQ-131" vertex="1">
          <mxGeometry width="150" height="30" relative="1" as="geometry">
            <mxPoint y="60" as="offset" />
          </mxGeometry>
        </mxCell>
        <mxCell id="hZRU2H-SfIQ9f5EC4YqQ-135" value="" style="strokeColor=inherit;fillColor=inherit;gradientColor=inherit;fontColor=inherit;html=1;shadow=0;dashed=0;perimeter=none;whiteSpace=wrap;resizeWidth=1;align=left;spacing=10;" parent="hZRU2H-SfIQ9f5EC4YqQ-131" vertex="1">
          <mxGeometry width="150" relative="1" as="geometry">
            <mxPoint y="90" as="offset" />
          </mxGeometry>
        </mxCell>
        <mxCell id="hZRU2H-SfIQ9f5EC4YqQ-136" value="&lt;font color=&quot;#ababab&quot;&gt;Aktuelle Termine&lt;/font&gt;" style="strokeColor=inherit;fillColor=inherit;gradientColor=inherit;fontColor=inherit;html=1;shadow=0;dashed=0;shape=mxgraph.bootstrap.bottomButton;rSize=5;perimeter=none;whiteSpace=wrap;resizeWidth=1;resizeHeight=0;align=left;spacing=10;" parent="hZRU2H-SfIQ9f5EC4YqQ-131" vertex="1">
          <mxGeometry y="1" width="150" height="30" relative="1" as="geometry">
            <mxPoint y="-30" as="offset" />
          </mxGeometry>
        </mxCell>
        <mxCell id="hZRU2H-SfIQ9f5EC4YqQ-138" value="" style="group" parent="1" vertex="1" connectable="0">
          <mxGeometry x="95" y="-981" width="440" height="320" as="geometry" />
        </mxCell>
        <mxCell id="hZRU2H-SfIQ9f5EC4YqQ-75" value="" style="endArrow=none;html=1;rounded=0;entryX=0.002;entryY=0.158;entryDx=0;entryDy=0;entryPerimeter=0;" parent="hZRU2H-SfIQ9f5EC4YqQ-138" source="hZRU2H-SfIQ9f5EC4YqQ-78" edge="1">
          <mxGeometry width="50" height="50" relative="1" as="geometry">
            <mxPoint x="440" y="70" as="sourcePoint" />
            <mxPoint x="0.8800000000001091" y="70.00000000000011" as="targetPoint" />
          </mxGeometry>
        </mxCell>
        <mxCell id="hZRU2H-SfIQ9f5EC4YqQ-79" value="" style="endArrow=none;html=1;rounded=0;entryX=0.002;entryY=0.158;entryDx=0;entryDy=0;entryPerimeter=0;" parent="hZRU2H-SfIQ9f5EC4YqQ-138" target="hZRU2H-SfIQ9f5EC4YqQ-78" edge="1">
          <mxGeometry width="50" height="50" relative="1" as="geometry">
            <mxPoint x="440" y="70" as="sourcePoint" />
            <mxPoint x="0.8800000000001091" y="70.00000000000011" as="targetPoint" />
          </mxGeometry>
        </mxCell>
        <mxCell id="hZRU2H-SfIQ9f5EC4YqQ-78" value="&lt;font color=&quot;#4f688c&quot;&gt;Prüfungstermin XXX&lt;br&gt;&lt;/font&gt;" style="html=1;shadow=0;dashed=0;shape=mxgraph.bootstrap.rrect;rSize=5;strokeColor=#6c8ebf;strokeWidth=1;fillColor=#dae8fc;whiteSpace=wrap;align=center;verticalAlign=middle;spacingLeft=0;fontStyle=0;fontSize=16;spacing=5;" parent="hZRU2H-SfIQ9f5EC4YqQ-138" vertex="1">
          <mxGeometry width="440" height="70" as="geometry" />
        </mxCell>
        <mxCell id="hZRU2H-SfIQ9f5EC4YqQ-80" value="" style="html=1;verticalLabelPosition=bottom;align=center;labelBackgroundColor=#ffffff;verticalAlign=top;strokeWidth=2;strokeColor=#7EA6E0;shadow=0;dashed=0;shape=mxgraph.ios7.icons.clock;" parent="hZRU2H-SfIQ9f5EC4YqQ-138" vertex="1">
          <mxGeometry x="10" y="80" width="30" height="30" as="geometry" />
        </mxCell>
        <mxCell id="hZRU2H-SfIQ9f5EC4YqQ-82" value="" style="html=1;verticalLabelPosition=bottom;align=center;labelBackgroundColor=#ffffff;verticalAlign=top;strokeWidth=2;strokeColor=#7EA6E0;shadow=0;dashed=0;shape=mxgraph.ios7.icons.most_viewed;pointerEvents=1" parent="hZRU2H-SfIQ9f5EC4YqQ-138" vertex="1">
          <mxGeometry x="8.800000000000011" y="190" width="28.2" height="22.8" as="geometry" />
        </mxCell>
        <mxCell id="hZRU2H-SfIQ9f5EC4YqQ-83" value="" style="html=1;verticalLabelPosition=bottom;align=center;labelBackgroundColor=#ffffff;verticalAlign=top;strokeWidth=2;strokeColor=#7EA6E0;shadow=0;dashed=0;shape=mxgraph.ios7.icons.location;" parent="hZRU2H-SfIQ9f5EC4YqQ-138" vertex="1">
          <mxGeometry x="13" y="152" width="24" height="30" as="geometry" />
        </mxCell>
        <mxCell id="hZRU2H-SfIQ9f5EC4YqQ-86" value="" style="html=1;verticalLabelPosition=bottom;align=center;labelBackgroundColor=#ffffff;verticalAlign=top;strokeWidth=2;strokeColor=#7EA6E0;shadow=0;dashed=0;shape=mxgraph.ios7.icons.bookmark;" parent="hZRU2H-SfIQ9f5EC4YqQ-138" vertex="1">
          <mxGeometry x="16" y="290" width="18" height="24" as="geometry" />
        </mxCell>
        <mxCell id="hZRU2H-SfIQ9f5EC4YqQ-87" value="" style="html=1;verticalLabelPosition=bottom;align=center;labelBackgroundColor=#ffffff;verticalAlign=top;strokeWidth=2;strokeColor=#7EA6E0;shadow=0;dashed=0;shape=mxgraph.ios7.icons.home;" parent="hZRU2H-SfIQ9f5EC4YqQ-138" vertex="1">
          <mxGeometry x="13" y="119" width="24" height="25.5" as="geometry" />
        </mxCell>
        <mxCell id="hZRU2H-SfIQ9f5EC4YqQ-88" value="&lt;font color=&quot;#4f688c&quot;&gt;Datum und Uhrzeit &lt;/font&gt;" style="text;html=1;align=left;verticalAlign=middle;whiteSpace=wrap;rounded=0;" parent="hZRU2H-SfIQ9f5EC4YqQ-138" vertex="1">
          <mxGeometry x="60" y="79" width="350" height="30" as="geometry" />
        </mxCell>
        <mxCell id="hZRU2H-SfIQ9f5EC4YqQ-89" value="&lt;font color=&quot;#4f688c&quot;&gt;Institut oder Fakultät&lt;br&gt;&lt;/font&gt;" style="text;html=1;align=left;verticalAlign=middle;whiteSpace=wrap;rounded=0;" parent="hZRU2H-SfIQ9f5EC4YqQ-138" vertex="1">
          <mxGeometry x="60" y="114.5" width="350" height="30" as="geometry" />
        </mxCell>
        <mxCell id="hZRU2H-SfIQ9f5EC4YqQ-90" value="&lt;font color=&quot;#4f688c&quot;&gt;Informationen zur Prüfung (Kommentarfeld des Buchenden)&lt;br&gt;&lt;/font&gt;" style="text;html=1;align=left;verticalAlign=middle;whiteSpace=wrap;rounded=0;" parent="hZRU2H-SfIQ9f5EC4YqQ-138" vertex="1">
          <mxGeometry x="60" y="182.8" width="350" height="30" as="geometry" />
        </mxCell>
        <mxCell id="hZRU2H-SfIQ9f5EC4YqQ-91" value="&lt;font color=&quot;#4f688c&quot;&gt;Ort an dem die Prüfung stattfindet&lt;br&gt;&lt;/font&gt;" style="text;html=1;align=left;verticalAlign=middle;whiteSpace=wrap;rounded=0;" parent="hZRU2H-SfIQ9f5EC4YqQ-138" vertex="1">
          <mxGeometry x="60" y="150" width="350" height="30" as="geometry" />
        </mxCell>
        <mxCell id="hZRU2H-SfIQ9f5EC4YqQ-92" value="&lt;font color=&quot;#4f688c&quot;&gt;Zugewiesene Kommentare / Aufgaben / Rolle&lt;br&gt;&lt;/font&gt;" style="text;html=1;align=left;verticalAlign=middle;whiteSpace=wrap;rounded=0;" parent="hZRU2H-SfIQ9f5EC4YqQ-138" vertex="1">
          <mxGeometry x="60" y="290" width="350" height="30" as="geometry" />
        </mxCell>
        <mxCell id="hZRU2H-SfIQ9f5EC4YqQ-113" value="" style="html=1;verticalLabelPosition=bottom;align=center;labelBackgroundColor=#ffffff;verticalAlign=top;strokeWidth=2;strokeColor=#A9C4EB;shadow=0;dashed=0;shape=mxgraph.ios7.icons.lightbulb;" parent="hZRU2H-SfIQ9f5EC4YqQ-138" vertex="1">
          <mxGeometry x="16" y="220" width="22.8" height="29.7" as="geometry" />
        </mxCell>
        <mxCell id="hZRU2H-SfIQ9f5EC4YqQ-114" value="&lt;font color=&quot;#4f688c&quot;&gt;Statusangabe&lt;/font&gt;" style="text;html=1;align=left;verticalAlign=middle;whiteSpace=wrap;rounded=0;" parent="hZRU2H-SfIQ9f5EC4YqQ-138" vertex="1">
          <mxGeometry x="60" y="219.8499999999999" width="350" height="30" as="geometry" />
        </mxCell>
        <mxCell id="lnfbFhsjXDdaq4weImcf-2" value="&lt;font color=&quot;#4f688c&quot;&gt;Verantwortliche Person&lt;br&gt;&lt;/font&gt;" style="text;html=1;align=left;verticalAlign=middle;whiteSpace=wrap;rounded=0;" parent="hZRU2H-SfIQ9f5EC4YqQ-138" vertex="1">
          <mxGeometry x="60" y="260" width="136" height="30" as="geometry" />
        </mxCell>
        <mxCell id="hZRU2H-SfIQ9f5EC4YqQ-210" value="" style="endArrow=classic;html=1;rounded=0;entryX=0;entryY=0.25;entryDx=0;entryDy=0;strokeColor=#ABABAB;exitX=0.433;exitY=0.98;exitDx=0;exitDy=0;exitPerimeter=0;" parent="1" source="hZRU2H-SfIQ9f5EC4YqQ-128" edge="1">
          <mxGeometry width="50" height="50" relative="1" as="geometry">
            <mxPoint x="-960" y="-810" as="sourcePoint" />
            <mxPoint x="-827" y="-140" as="targetPoint" />
            <Array as="points">
              <mxPoint x="-980" y="-140" />
            </Array>
          </mxGeometry>
        </mxCell>
        <mxCell id="hZRU2H-SfIQ9f5EC4YqQ-217" style="edgeStyle=none;rounded=0;orthogonalLoop=1;jettySize=auto;html=1;" parent="1" source="hZRU2H-SfIQ9f5EC4YqQ-211" target="hZRU2H-SfIQ9f5EC4YqQ-216" edge="1">
          <mxGeometry relative="1" as="geometry" />
        </mxCell>
        <mxCell id="hZRU2H-SfIQ9f5EC4YqQ-211" value="&lt;font style=&quot;font-size: 24px;&quot; color=&quot;#ffffff&quot;&gt;&lt;b&gt;Detailansicht Prüfungstermin&lt;br&gt;&lt;/b&gt;&lt;/font&gt;" style="rounded=0;whiteSpace=wrap;html=1;fillColor=#7EA6E0;strokeColor=#7EA6E0;" parent="1" vertex="1">
          <mxGeometry x="75" y="-1070" width="500" height="65" as="geometry" />
        </mxCell>
        <mxCell id="hZRU2H-SfIQ9f5EC4YqQ-216" value="&lt;font color=&quot;#ffffff&quot;&gt;Orientiert sich an der Detailansicht des Moodle-Kalenders&lt;br&gt;&lt;/font&gt;" style="rounded=1;whiteSpace=wrap;html=1;fillColor=#ABABAB;fontColor=#333333;strokeColor=#666666;" parent="1" vertex="1">
          <mxGeometry x="595" y="-1140" width="157" height="80" as="geometry" />
        </mxCell>
        <mxCell id="hZRU2H-SfIQ9f5EC4YqQ-223" value="" style="edgeStyle=none;rounded=0;orthogonalLoop=1;jettySize=auto;html=1;" parent="1" source="hZRU2H-SfIQ9f5EC4YqQ-222" target="hZRU2H-SfIQ9f5EC4YqQ-122" edge="1">
          <mxGeometry relative="1" as="geometry" />
        </mxCell>
        <mxCell id="hZRU2H-SfIQ9f5EC4YqQ-222" value="&lt;font color=&quot;#ababab&quot;&gt;Die Funktion ist optional und bisher nicht in den Userstorries enthalten (Ich dachteaber, dass es eventuell sinnvoll sei, eigene Notizen anlegen zu können(Was man selbst nicht vergessen will, andere aber nicht lesen können)&lt;br&gt;&lt;/font&gt;" style="text;html=1;align=center;verticalAlign=middle;whiteSpace=wrap;rounded=0;" parent="1" vertex="1">
          <mxGeometry x="541.75" y="-445" width="190" height="170" as="geometry" />
        </mxCell>
        <mxCell id="hZRU2H-SfIQ9f5EC4YqQ-226" value="&lt;font size=&quot;1&quot; color=&quot;#4f688c&quot;&gt;&lt;b style=&quot;font-size: 29px;&quot;&gt;Buchungskalender&lt;/b&gt;&lt;/font&gt;" style="text;html=1;align=center;verticalAlign=middle;whiteSpace=wrap;rounded=0;" parent="1" vertex="1">
          <mxGeometry x="-770" y="-1060" width="170" height="60" as="geometry" />
        </mxCell>
        <mxCell id="hZRU2H-SfIQ9f5EC4YqQ-228" value="&lt;font size=&quot;1&quot; color=&quot;#4f688c&quot;&gt;&lt;span style=&quot;font-weight: normal; font-size: 13px;&quot;&gt;Import und Export&lt;/span&gt;&lt;/font&gt;" style="strokeWidth=1;shadow=0;dashed=0;align=center;html=1;shape=mxgraph.mockup.buttons.button;strokeColor=#6c8ebf;mainText=;buttonStyle=round;fontSize=17;fontStyle=1;fillColor=#dae8fc;whiteSpace=wrap;" parent="1" vertex="1">
          <mxGeometry x="-801" y="-280" width="110" height="30" as="geometry" />
        </mxCell>
        <mxCell id="lnfbFhsjXDdaq4weImcf-1" value="" style="shape=actor;whiteSpace=wrap;html=1;strokeColor=#7EA6E0;" parent="1" vertex="1">
          <mxGeometry x="111.54999999999998" y="-726" width="22.3" height="30.5" as="geometry" />
        </mxCell>
        <mxCell id="lnfbFhsjXDdaq4weImcf-22" value="&lt;div style=&quot;font-size: 16px;&quot;&gt;Detailpunkte(verringerte Version der Detailübersicht vom Service-Team) &lt;br style=&quot;font-size: 16px;&quot;&gt;&lt;/div&gt;&lt;div style=&quot;font-size: 16px;&quot;&gt;- gemeinsam entscheiden welche Details zusätzlich übernommen werden sollen &lt;br style=&quot;font-size: 16px;&quot;&gt;&lt;/div&gt;" style="text;html=1;align=center;verticalAlign=middle;whiteSpace=wrap;rounded=0;fillColor=#d5e8d4;strokeColor=#82b366;fontSize=16;" parent="1" vertex="1">
          <mxGeometry x="550" y="-930" width="185" height="180" as="geometry" />
        </mxCell>
        <mxCell id="Mjstm2Iupr-ztOas4ZXs-4" value="Kalenderdetails" style="locked=1;" parent="0" />
        <mxCell id="Mjstm2Iupr-ztOas4ZXs-5" value="&lt;font style=&quot;font-size: 24px;&quot;&gt;&lt;b&gt;&lt;font color=&quot;#ffffff&quot;&gt;Mockup Kalender&lt;/font&gt;&lt;/b&gt;&lt;b&gt;&lt;font color=&quot;#ffffff&quot;&gt;&amp;nbsp;Support vor Ort persönliche Termine (Terminübersicht)&lt;/font&gt;&lt;font color=&quot;#ffffff&quot;&gt;&lt;br&gt;&lt;/font&gt;&lt;/b&gt;&lt;/font&gt;" style="rounded=0;whiteSpace=wrap;html=1;fillColor=#7EA6E0;strokeColor=#7EA6E0;" vertex="1" parent="Mjstm2Iupr-ztOas4ZXs-4">
          <mxGeometry x="-827" y="-160" width="827" height="80" as="geometry" />
        </mxCell>
        <mxCell id="Mjstm2Iupr-ztOas4ZXs-6" value="" style="group" vertex="1" connectable="0" parent="Mjstm2Iupr-ztOas4ZXs-4">
          <mxGeometry x="-749.5" y="90" width="670" height="440" as="geometry" />
        </mxCell>
        <mxCell id="Mjstm2Iupr-ztOas4ZXs-7" value="" style="endArrow=none;html=1;rounded=0;entryX=0.002;entryY=0.158;entryDx=0;entryDy=0;entryPerimeter=0;" edge="1" parent="Mjstm2Iupr-ztOas4ZXs-6" source="Mjstm2Iupr-ztOas4ZXs-12">
          <mxGeometry width="50" height="50" relative="1" as="geometry">
            <mxPoint x="667.5783132530121" y="73.41101694915254" as="sourcePoint" />
            <mxPoint x="1.3351566265061896" y="73.41101694915264" as="targetPoint" />
          </mxGeometry>
        </mxCell>
        <mxCell id="Mjstm2Iupr-ztOas4ZXs-8" value="" style="rounded=1;whiteSpace=wrap;html=1;arcSize=2;strokeColor=#4F688C;container=1;" vertex="1" parent="Mjstm2Iupr-ztOas4ZXs-6">
          <mxGeometry x="-0.8072289156626505" width="670.8072289156627" height="439.99999999999994" as="geometry" />
        </mxCell>
        <mxCell id="Mjstm2Iupr-ztOas4ZXs-9" value="" style="shape=actor;whiteSpace=wrap;html=1;strokeColor=#7EA6E0;" vertex="1" parent="Mjstm2Iupr-ztOas4ZXs-8">
          <mxGeometry x="30.047228915662686" y="261.02" width="22.3" height="30.5" as="geometry" />
        </mxCell>
        <mxCell id="Mjstm2Iupr-ztOas4ZXs-10" value="&lt;font color=&quot;#4f688c&quot;&gt;Verantwortliche Person&lt;br&gt;&lt;/font&gt;" style="text;html=1;align=left;verticalAlign=middle;whiteSpace=wrap;rounded=0;" vertex="1" parent="Mjstm2Iupr-ztOas4ZXs-8">
          <mxGeometry x="87.18722891566267" y="261.02" width="136" height="30" as="geometry" />
        </mxCell>
        <mxCell id="Mjstm2Iupr-ztOas4ZXs-11" value="" style="endArrow=none;html=1;rounded=0;entryX=0.002;entryY=0.158;entryDx=0;entryDy=0;entryPerimeter=0;" edge="1" parent="Mjstm2Iupr-ztOas4ZXs-6" target="Mjstm2Iupr-ztOas4ZXs-12">
          <mxGeometry width="50" height="50" relative="1" as="geometry">
            <mxPoint x="667.5783132530121" y="73.41101694915254" as="sourcePoint" />
            <mxPoint x="1.3351566265061896" y="73.41101694915264" as="targetPoint" />
          </mxGeometry>
        </mxCell>
        <mxCell id="Mjstm2Iupr-ztOas4ZXs-12" value="&lt;b style=&quot;font-size: 22px;&quot;&gt;&lt;font style=&quot;font-size: 22px;&quot; color=&quot;#4f688c&quot;&gt;Prüfungstermin XXX&lt;br&gt;&lt;/font&gt;&lt;/b&gt;" style="html=1;shadow=0;dashed=0;shape=mxgraph.bootstrap.rrect;rSize=5;strokeColor=#6c8ebf;strokeWidth=1;fillColor=#dae8fc;whiteSpace=wrap;align=center;verticalAlign=middle;spacingLeft=0;fontStyle=0;fontSize=16;spacing=5;" vertex="1" parent="Mjstm2Iupr-ztOas4ZXs-6">
          <mxGeometry width="670" height="73.4128813559322" as="geometry" />
        </mxCell>
        <mxCell id="Mjstm2Iupr-ztOas4ZXs-13" value="" style="html=1;verticalLabelPosition=bottom;align=center;labelBackgroundColor=#ffffff;verticalAlign=top;strokeWidth=2;strokeColor=#7EA6E0;shadow=0;dashed=0;shape=mxgraph.ios7.icons.clock;" vertex="1" parent="Mjstm2Iupr-ztOas4ZXs-6">
          <mxGeometry x="15.175903614457832" y="83.89830508474576" width="41.33012048192771" height="35.423728813559315" as="geometry" />
        </mxCell>
        <mxCell id="Mjstm2Iupr-ztOas4ZXs-14" value="" style="html=1;verticalLabelPosition=bottom;align=center;labelBackgroundColor=#ffffff;verticalAlign=top;strokeWidth=2;strokeColor=#7EA6E0;shadow=0;dashed=0;shape=mxgraph.ios7.icons.most_viewed;pointerEvents=1" vertex="1" parent="Mjstm2Iupr-ztOas4ZXs-6">
          <mxGeometry x="13.35156626506024" y="199.26033898305084" width="43.1544578313253" height="24.468474576271188" as="geometry" />
        </mxCell>
        <mxCell id="Mjstm2Iupr-ztOas4ZXs-15" value="" style="html=1;verticalLabelPosition=bottom;align=center;labelBackgroundColor=#ffffff;verticalAlign=top;strokeWidth=2;strokeColor=#7EA6E0;shadow=0;dashed=0;shape=mxgraph.ios7.icons.location;" vertex="1" parent="Mjstm2Iupr-ztOas4ZXs-6">
          <mxGeometry x="19.720602409638552" y="159.40677966101694" width="36.785421686746986" height="34.49152542372882" as="geometry" />
        </mxCell>
        <mxCell id="Mjstm2Iupr-ztOas4ZXs-16" value="" style="html=1;verticalLabelPosition=bottom;align=center;labelBackgroundColor=#ffffff;verticalAlign=top;strokeWidth=2;strokeColor=#7EA6E0;shadow=0;dashed=0;shape=mxgraph.ios7.icons.bookmark;" vertex="1" parent="Mjstm2Iupr-ztOas4ZXs-6">
          <mxGeometry x="24.273373493975903" y="295.18033898305083" width="32.232650602409635" height="31.463728813559317" as="geometry" />
        </mxCell>
        <mxCell id="Mjstm2Iupr-ztOas4ZXs-17" value="" style="html=1;verticalLabelPosition=bottom;align=center;labelBackgroundColor=#ffffff;verticalAlign=top;strokeWidth=2;strokeColor=#7EA6E0;shadow=0;dashed=0;shape=mxgraph.ios7.icons.home;" vertex="1" parent="Mjstm2Iupr-ztOas4ZXs-6">
          <mxGeometry x="19.720602409638552" y="124.79593220338982" width="36.785421686746986" height="31.814237288135583" as="geometry" />
        </mxCell>
        <mxCell id="Mjstm2Iupr-ztOas4ZXs-18" value="&lt;font style=&quot;font-size: 16px;&quot; color=&quot;#4f688c&quot;&gt;Datum und Uhrzeit &lt;/font&gt;" style="text;html=1;align=left;verticalAlign=middle;whiteSpace=wrap;rounded=0;" vertex="1" parent="Mjstm2Iupr-ztOas4ZXs-6">
          <mxGeometry x="86.37569550930995" y="85.87737288135592" width="531.0282037239867" height="31.461864406779657" as="geometry" />
        </mxCell>
        <mxCell id="Mjstm2Iupr-ztOas4ZXs-19" value="&lt;font style=&quot;font-size: 16px;&quot; color=&quot;#4f688c&quot;&gt;Institut oder Fakultät&lt;br&gt;&lt;/font&gt;" style="text;html=1;align=left;verticalAlign=middle;whiteSpace=wrap;rounded=0;" vertex="1" parent="Mjstm2Iupr-ztOas4ZXs-6">
          <mxGeometry x="86.37569550930995" y="125.84419491525422" width="531.0282037239867" height="31.461864406779657" as="geometry" />
        </mxCell>
        <mxCell id="Mjstm2Iupr-ztOas4ZXs-20" value="&lt;font style=&quot;font-size: 16px;&quot; color=&quot;#4f688c&quot;&gt;Informationen zur Prüfung (Kommentarfeld des Buchenden)&lt;br&gt;&lt;/font&gt;" style="text;html=1;align=left;verticalAlign=middle;whiteSpace=wrap;rounded=0;" vertex="1" parent="Mjstm2Iupr-ztOas4ZXs-6">
          <mxGeometry x="86.37569550930995" y="199.26220338983052" width="531.0282037239867" height="31.461864406779657" as="geometry" />
        </mxCell>
        <mxCell id="Mjstm2Iupr-ztOas4ZXs-21" value="&lt;font style=&quot;font-size: 16px;&quot; color=&quot;#4f688c&quot;&gt;Ort an dem die Prüfung stattfindet&lt;br&gt;&lt;/font&gt;" style="text;html=1;align=left;verticalAlign=middle;whiteSpace=wrap;rounded=0;" vertex="1" parent="Mjstm2Iupr-ztOas4ZXs-6">
          <mxGeometry x="86.37569550930995" y="162.44016949152538" width="531.0282037239867" height="31.461864406779657" as="geometry" />
        </mxCell>
        <mxCell id="Mjstm2Iupr-ztOas4ZXs-22" value="&lt;font style=&quot;font-size: 16px;&quot; color=&quot;#4f688c&quot;&gt;Zugewiesene Kommentare / Aufgaben / Rolle&lt;br&gt;&lt;/font&gt;" style="text;html=1;align=left;verticalAlign=middle;whiteSpace=wrap;rounded=0;" vertex="1" parent="Mjstm2Iupr-ztOas4ZXs-6">
          <mxGeometry x="86.37569550930995" y="295.1822033898305" width="531.0282037239867" height="31.461864406779657" as="geometry" />
        </mxCell>
        <mxCell id="Mjstm2Iupr-ztOas4ZXs-23" value="" style="html=1;verticalLabelPosition=bottom;align=center;labelBackgroundColor=#ffffff;verticalAlign=top;strokeWidth=2;strokeColor=#A9C4EB;shadow=0;dashed=0;shape=mxgraph.ios7.icons.lightbulb;" vertex="1" parent="Mjstm2Iupr-ztOas4ZXs-6">
          <mxGeometry x="24.273373493975903" y="230.72406779661014" width="32.232650602409635" height="30.300338983050846" as="geometry" />
        </mxCell>
        <mxCell id="Mjstm2Iupr-ztOas4ZXs-24" value="&lt;font style=&quot;font-size: 16px;&quot; color=&quot;#4f688c&quot;&gt;Statusangabe&lt;/font&gt;" style="text;html=1;align=left;verticalAlign=middle;whiteSpace=wrap;rounded=0;" vertex="1" parent="Mjstm2Iupr-ztOas4ZXs-6">
          <mxGeometry x="86.37569550930995" y="229.56370762711856" width="531.0282037239867" height="31.461864406779657" as="geometry" />
        </mxCell>
        <mxCell id="Mjstm2Iupr-ztOas4ZXs-25" value="&lt;div&gt;&lt;font style=&quot;font-size: 15px;&quot; color=&quot;#4f688c&quot;&gt;Checkliste&lt;/font&gt;&lt;/div&gt;" style="strokeWidth=1;shadow=0;dashed=0;align=center;html=1;shape=mxgraph.mockup.buttons.button;strokeColor=#6c8ebf;mainText=;buttonStyle=round;fontSize=17;fontStyle=1;fillColor=#dae8fc;whiteSpace=wrap;" vertex="1" parent="Mjstm2Iupr-ztOas4ZXs-6">
          <mxGeometry x="56.50602409638554" y="387.7966101694915" width="104.93975903614457" height="37.28813559322033" as="geometry" />
        </mxCell>
        <mxCell id="Mjstm2Iupr-ztOas4ZXs-26" value="&lt;font color=&quot;#ffffff&quot;&gt;&lt;span style=&quot;font-size: 15px; font-weight: 400;&quot;&gt;Kontakt aufnehmen&lt;/span&gt;&lt;/font&gt;" style="strokeWidth=1;shadow=0;dashed=0;align=center;html=1;shape=mxgraph.mockup.buttons.button;strokeColor=#A680B8;mainText=;buttonStyle=round;fontSize=17;fontStyle=1;fillColor=#CDA2BE;whiteSpace=wrap;" vertex="1" parent="Mjstm2Iupr-ztOas4ZXs-6">
          <mxGeometry x="531.1566265060239" y="387.7966101694915" width="106.55421686746988" height="37.28813559322033" as="geometry" />
        </mxCell>
        <mxCell id="Mjstm2Iupr-ztOas4ZXs-27" value="" style="html=1;verticalLabelPosition=bottom;align=center;labelBackgroundColor=#ffffff;verticalAlign=top;strokeWidth=2;strokeColor=#7EA6E0;shadow=0;dashed=0;shape=mxgraph.ios7.icons.edit;" vertex="1" parent="Mjstm2Iupr-ztOas4ZXs-6">
          <mxGeometry x="26.251084337349404" y="335.59322033898303" width="30.25493975903614" height="29.83050847457627" as="geometry" />
        </mxCell>
        <mxCell id="Mjstm2Iupr-ztOas4ZXs-28" value="&lt;div&gt;&lt;br&gt;&lt;/div&gt;&lt;div&gt;&lt;br&gt;&lt;/div&gt;&lt;div align=&quot;left&quot;&gt;&lt;font color=&quot;#4f688c&quot;&gt;&lt;br&gt;&lt;/font&gt;&lt;/div&gt;&lt;div align=&quot;left&quot;&gt;&lt;font color=&quot;#4f688c&quot;&gt;eigene Notizen&lt;/font&gt;&lt;/div&gt;&lt;div align=&quot;left&quot;&gt;&lt;font color=&quot;#4f688c&quot;&gt;&lt;br&gt;&lt;/font&gt;&lt;/div&gt;&lt;div align=&quot;left&quot;&gt;&lt;font color=&quot;#4f688c&quot;&gt;&lt;br&gt;&lt;/font&gt;&lt;/div&gt;&lt;div align=&quot;left&quot;&gt;&lt;font color=&quot;#4f688c&quot;&gt;&lt;br&gt;&lt;/font&gt;&lt;/div&gt;&lt;div align=&quot;left&quot;&gt;&lt;font color=&quot;#4f688c&quot;&gt;&lt;br&gt;&lt;/font&gt;&lt;/div&gt;" style="rounded=1;whiteSpace=wrap;html=1;strokeColor=#A9C4EB;align=left;" vertex="1" parent="Mjstm2Iupr-ztOas4ZXs-6">
          <mxGeometry x="86.37349397590361" y="335.59322033898303" width="519.0481927710844" height="37.28813559322033" as="geometry" />
        </mxCell>
        <mxCell id="Mjstm2Iupr-ztOas4ZXs-29" value="&lt;font size=&quot;1&quot;&gt;&lt;u style=&quot;font-size: 14px;&quot;&gt;Bearbeiten&lt;/u&gt;&lt;/font&gt;" style="html=1;shadow=0;dashed=0;shape=mxgraph.bootstrap.rrect;rSize=5;strokeColor=none;strokeWidth=1;fillColor=none;fontColor=#0085FC;whiteSpace=wrap;align=center;verticalAlign=middle;spacingLeft=0;fontStyle=0;fontSize=16;spacing=5;" vertex="1" parent="Mjstm2Iupr-ztOas4ZXs-6">
          <mxGeometry x="523.0843373493975" y="350.0610169491526" width="88.79518072289156" height="22.82033898305085" as="geometry" />
        </mxCell>
        <mxCell id="Mjstm2Iupr-ztOas4ZXs-30" value="Filterkategorie" style="html=1;shadow=0;dashed=0;shape=mxgraph.bootstrap.rrect;rSize=5;strokeColor=#ABABAB;strokeWidth=1;fillColor=#ffffff;fontColor=#777777;whiteSpace=wrap;align=left;verticalAlign=middle;fontStyle=0;fontSize=14;spacingRight=0;spacing=17;" vertex="1" parent="Mjstm2Iupr-ztOas4ZXs-4">
          <mxGeometry x="-630" y="10" width="550" height="30" as="geometry" />
        </mxCell>
        <mxCell id="Mjstm2Iupr-ztOas4ZXs-31" value="" style="shape=triangle;direction=south;fillColor=#495057;strokeColor=none;perimeter=none;" vertex="1" parent="Mjstm2Iupr-ztOas4ZXs-30">
          <mxGeometry x="1" y="0.5" width="10" height="5" relative="1" as="geometry">
            <mxPoint x="-17" y="-2.5" as="offset" />
          </mxGeometry>
        </mxCell>
        <mxCell id="Mjstm2Iupr-ztOas4ZXs-32" value="persönliche Termine" style="html=1;shadow=0;dashed=0;shape=mxgraph.bootstrap.rrect;rSize=5;fillColor=#ffffff;strokeColor=#999999;align=left;spacing=15;fontSize=14;fontColor=#6C767D;" vertex="1" parent="Mjstm2Iupr-ztOas4ZXs-4">
          <mxGeometry x="-810" y="10" width="160" height="30" as="geometry" />
        </mxCell>
        <mxCell id="Mjstm2Iupr-ztOas4ZXs-33" value="" style="shape=triangle;direction=south;fillColor=#343A40;strokeColor=none;perimeter=none;sketch=0;" vertex="1" parent="Mjstm2Iupr-ztOas4ZXs-32">
          <mxGeometry x="1" y="0.5" width="7" height="3" relative="1" as="geometry">
            <mxPoint x="-17" y="1" as="offset" />
          </mxGeometry>
        </mxCell>
        <mxCell id="Mjstm2Iupr-ztOas4ZXs-34" value="" style="shape=triangle;direction=north;fillColor=#343A40;strokeColor=none;perimeter=none;sketch=0;" vertex="1" parent="Mjstm2Iupr-ztOas4ZXs-32">
          <mxGeometry x="1" y="0.5" width="7" height="3" relative="1" as="geometry">
            <mxPoint x="-17" y="-4" as="offset" />
          </mxGeometry>
        </mxCell>
        <mxCell id="Mjstm2Iupr-ztOas4ZXs-35" value="" style="group" vertex="1" connectable="0" parent="Mjstm2Iupr-ztOas4ZXs-4">
          <mxGeometry x="-749.5" y="570" width="670" height="440" as="geometry" />
        </mxCell>
        <mxCell id="Mjstm2Iupr-ztOas4ZXs-36" value="" style="endArrow=none;html=1;rounded=0;entryX=0.002;entryY=0.158;entryDx=0;entryDy=0;entryPerimeter=0;" edge="1" parent="Mjstm2Iupr-ztOas4ZXs-35" source="Mjstm2Iupr-ztOas4ZXs-39">
          <mxGeometry width="50" height="50" relative="1" as="geometry">
            <mxPoint x="667.5783132530121" y="73.41101694915254" as="sourcePoint" />
            <mxPoint x="1.3351566265061896" y="73.41101694915264" as="targetPoint" />
          </mxGeometry>
        </mxCell>
        <mxCell id="Mjstm2Iupr-ztOas4ZXs-37" value="" style="rounded=1;whiteSpace=wrap;html=1;arcSize=2;strokeColor=#4F688C;container=1;" vertex="1" parent="Mjstm2Iupr-ztOas4ZXs-35">
          <mxGeometry x="-0.8072289156626505" width="670.8072289156627" height="439.99999999999994" as="geometry" />
        </mxCell>
        <mxCell id="Mjstm2Iupr-ztOas4ZXs-38" value="" style="endArrow=none;html=1;rounded=0;entryX=0.002;entryY=0.158;entryDx=0;entryDy=0;entryPerimeter=0;" edge="1" parent="Mjstm2Iupr-ztOas4ZXs-35" target="Mjstm2Iupr-ztOas4ZXs-39">
          <mxGeometry width="50" height="50" relative="1" as="geometry">
            <mxPoint x="667.5783132530121" y="73.41101694915254" as="sourcePoint" />
            <mxPoint x="1.3351566265061896" y="73.41101694915264" as="targetPoint" />
          </mxGeometry>
        </mxCell>
        <mxCell id="Mjstm2Iupr-ztOas4ZXs-39" value="&lt;b style=&quot;font-size: 22px;&quot;&gt;&lt;font style=&quot;font-size: 22px;&quot; color=&quot;#4f688c&quot;&gt;Prüfungstermin XXX&lt;br&gt;&lt;/font&gt;&lt;/b&gt;" style="html=1;shadow=0;dashed=0;shape=mxgraph.bootstrap.rrect;rSize=5;strokeColor=#6c8ebf;strokeWidth=1;fillColor=#dae8fc;whiteSpace=wrap;align=center;verticalAlign=middle;spacingLeft=0;fontStyle=0;fontSize=16;spacing=5;" vertex="1" parent="Mjstm2Iupr-ztOas4ZXs-35">
          <mxGeometry width="670" height="73.4128813559322" as="geometry" />
        </mxCell>
        <mxCell id="Mjstm2Iupr-ztOas4ZXs-40" value="" style="html=1;verticalLabelPosition=bottom;align=center;labelBackgroundColor=#ffffff;verticalAlign=top;strokeWidth=2;strokeColor=#7EA6E0;shadow=0;dashed=0;shape=mxgraph.ios7.icons.clock;" vertex="1" parent="Mjstm2Iupr-ztOas4ZXs-35">
          <mxGeometry x="16.17590361445783" y="83.89830508474576" width="41.33012048192771" height="35.423728813559315" as="geometry" />
        </mxCell>
        <mxCell id="Mjstm2Iupr-ztOas4ZXs-41" value="" style="html=1;verticalLabelPosition=bottom;align=center;labelBackgroundColor=#ffffff;verticalAlign=top;strokeWidth=2;strokeColor=#7EA6E0;shadow=0;dashed=0;shape=mxgraph.ios7.icons.most_viewed;pointerEvents=1" vertex="1" parent="Mjstm2Iupr-ztOas4ZXs-35">
          <mxGeometry x="13.35156626506024" y="199.26033898305084" width="43.1544578313253" height="24.468474576271188" as="geometry" />
        </mxCell>
        <mxCell id="Mjstm2Iupr-ztOas4ZXs-42" value="" style="html=1;verticalLabelPosition=bottom;align=center;labelBackgroundColor=#ffffff;verticalAlign=top;strokeWidth=2;strokeColor=#7EA6E0;shadow=0;dashed=0;shape=mxgraph.ios7.icons.location;" vertex="1" parent="Mjstm2Iupr-ztOas4ZXs-35">
          <mxGeometry x="19.720602409638552" y="159.40677966101694" width="36.785421686746986" height="34.49152542372882" as="geometry" />
        </mxCell>
        <mxCell id="Mjstm2Iupr-ztOas4ZXs-43" value="" style="html=1;verticalLabelPosition=bottom;align=center;labelBackgroundColor=#ffffff;verticalAlign=top;strokeWidth=2;strokeColor=#7EA6E0;shadow=0;dashed=0;shape=mxgraph.ios7.icons.bookmark;" vertex="1" parent="Mjstm2Iupr-ztOas4ZXs-35">
          <mxGeometry x="24.273373493975903" y="295.18033898305083" width="32.232650602409635" height="31.463728813559317" as="geometry" />
        </mxCell>
        <mxCell id="Mjstm2Iupr-ztOas4ZXs-44" value="" style="html=1;verticalLabelPosition=bottom;align=center;labelBackgroundColor=#ffffff;verticalAlign=top;strokeWidth=2;strokeColor=#7EA6E0;shadow=0;dashed=0;shape=mxgraph.ios7.icons.home;" vertex="1" parent="Mjstm2Iupr-ztOas4ZXs-35">
          <mxGeometry x="19.720602409638552" y="124.79593220338982" width="36.785421686746986" height="31.814237288135583" as="geometry" />
        </mxCell>
        <mxCell id="Mjstm2Iupr-ztOas4ZXs-45" value="&lt;font style=&quot;font-size: 16px;&quot; color=&quot;#4f688c&quot;&gt;Datum und Uhrzeit &lt;/font&gt;" style="text;html=1;align=left;verticalAlign=middle;whiteSpace=wrap;rounded=0;" vertex="1" parent="Mjstm2Iupr-ztOas4ZXs-35">
          <mxGeometry x="86.37569550930995" y="85.87737288135592" width="531.0282037239867" height="31.461864406779657" as="geometry" />
        </mxCell>
        <mxCell id="Mjstm2Iupr-ztOas4ZXs-46" value="&lt;font style=&quot;font-size: 16px;&quot; color=&quot;#4f688c&quot;&gt;Institut oder Fakultät&lt;br&gt;&lt;/font&gt;" style="text;html=1;align=left;verticalAlign=middle;whiteSpace=wrap;rounded=0;" vertex="1" parent="Mjstm2Iupr-ztOas4ZXs-35">
          <mxGeometry x="86.37569550930995" y="125.84419491525422" width="531.0282037239867" height="31.461864406779657" as="geometry" />
        </mxCell>
        <mxCell id="Mjstm2Iupr-ztOas4ZXs-47" value="&lt;font style=&quot;font-size: 16px;&quot; color=&quot;#4f688c&quot;&gt;Informationen zur Prüfung (Kommentarfeld des Buchenden)&lt;br&gt;&lt;/font&gt;" style="text;html=1;align=left;verticalAlign=middle;whiteSpace=wrap;rounded=0;" vertex="1" parent="Mjstm2Iupr-ztOas4ZXs-35">
          <mxGeometry x="86.37569550930995" y="199.26220338983052" width="531.0282037239867" height="31.461864406779657" as="geometry" />
        </mxCell>
        <mxCell id="Mjstm2Iupr-ztOas4ZXs-48" value="&lt;font style=&quot;font-size: 16px;&quot; color=&quot;#4f688c&quot;&gt;Ort an dem die Prüfung stattfindet&lt;br&gt;&lt;/font&gt;" style="text;html=1;align=left;verticalAlign=middle;whiteSpace=wrap;rounded=0;" vertex="1" parent="Mjstm2Iupr-ztOas4ZXs-35">
          <mxGeometry x="86.37569550930995" y="162.44016949152538" width="531.0282037239867" height="31.461864406779657" as="geometry" />
        </mxCell>
        <mxCell id="Mjstm2Iupr-ztOas4ZXs-49" value="&lt;font style=&quot;font-size: 16px;&quot; color=&quot;#4f688c&quot;&gt;Zugewiesene Kommentare / Aufgaben / Rolle&lt;br&gt;&lt;/font&gt;" style="text;html=1;align=left;verticalAlign=middle;whiteSpace=wrap;rounded=0;" vertex="1" parent="Mjstm2Iupr-ztOas4ZXs-35">
          <mxGeometry x="86.37569550930995" y="295.1822033898305" width="531.0282037239867" height="31.461864406779657" as="geometry" />
        </mxCell>
        <mxCell id="Mjstm2Iupr-ztOas4ZXs-50" value="" style="html=1;verticalLabelPosition=bottom;align=center;labelBackgroundColor=#ffffff;verticalAlign=top;strokeWidth=2;strokeColor=#A9C4EB;shadow=0;dashed=0;shape=mxgraph.ios7.icons.lightbulb;" vertex="1" parent="Mjstm2Iupr-ztOas4ZXs-35">
          <mxGeometry x="24.273373493975903" y="230.72406779661014" width="32.232650602409635" height="30.300338983050846" as="geometry" />
        </mxCell>
        <mxCell id="Mjstm2Iupr-ztOas4ZXs-51" value="&lt;font style=&quot;font-size: 16px;&quot; color=&quot;#4f688c&quot;&gt;Statusangabe&lt;/font&gt;" style="text;html=1;align=left;verticalAlign=middle;whiteSpace=wrap;rounded=0;" vertex="1" parent="Mjstm2Iupr-ztOas4ZXs-35">
          <mxGeometry x="86.37569550930995" y="229.56370762711856" width="531.0282037239867" height="31.461864406779657" as="geometry" />
        </mxCell>
        <mxCell id="Mjstm2Iupr-ztOas4ZXs-52" value="&lt;div&gt;&lt;font style=&quot;font-size: 15px;&quot; color=&quot;#4f688c&quot;&gt;Checkliste&lt;/font&gt;&lt;/div&gt;" style="strokeWidth=1;shadow=0;dashed=0;align=center;html=1;shape=mxgraph.mockup.buttons.button;strokeColor=#6c8ebf;mainText=;buttonStyle=round;fontSize=17;fontStyle=1;fillColor=#dae8fc;whiteSpace=wrap;" vertex="1" parent="Mjstm2Iupr-ztOas4ZXs-35">
          <mxGeometry x="56.50602409638554" y="387.7966101694915" width="104.93975903614457" height="37.28813559322033" as="geometry" />
        </mxCell>
        <mxCell id="Mjstm2Iupr-ztOas4ZXs-53" value="&lt;font color=&quot;#ffffff&quot;&gt;&lt;span style=&quot;font-size: 15px; font-weight: 400;&quot;&gt;Kontakt aufnehmen&lt;/span&gt;&lt;/font&gt;" style="strokeWidth=1;shadow=0;dashed=0;align=center;html=1;shape=mxgraph.mockup.buttons.button;strokeColor=#A680B8;mainText=;buttonStyle=round;fontSize=17;fontStyle=1;fillColor=#CDA2BE;whiteSpace=wrap;" vertex="1" parent="Mjstm2Iupr-ztOas4ZXs-35">
          <mxGeometry x="531.1566265060239" y="387.7966101694915" width="106.55421686746988" height="37.28813559322033" as="geometry" />
        </mxCell>
        <mxCell id="Mjstm2Iupr-ztOas4ZXs-54" value="" style="html=1;verticalLabelPosition=bottom;align=center;labelBackgroundColor=#ffffff;verticalAlign=top;strokeWidth=2;strokeColor=#7EA6E0;shadow=0;dashed=0;shape=mxgraph.ios7.icons.edit;" vertex="1" parent="Mjstm2Iupr-ztOas4ZXs-35">
          <mxGeometry x="26.251084337349404" y="335.59322033898303" width="30.25493975903614" height="29.83050847457627" as="geometry" />
        </mxCell>
        <mxCell id="Mjstm2Iupr-ztOas4ZXs-55" value="&lt;div&gt;&lt;br&gt;&lt;/div&gt;&lt;div&gt;&lt;br&gt;&lt;/div&gt;&lt;div align=&quot;left&quot;&gt;&lt;font color=&quot;#4f688c&quot;&gt;&lt;br&gt;&lt;/font&gt;&lt;/div&gt;&lt;div align=&quot;left&quot;&gt;&lt;font color=&quot;#4f688c&quot;&gt;eigene Notizen&lt;/font&gt;&lt;/div&gt;&lt;div align=&quot;left&quot;&gt;&lt;font color=&quot;#4f688c&quot;&gt;&lt;br&gt;&lt;/font&gt;&lt;/div&gt;&lt;div align=&quot;left&quot;&gt;&lt;font color=&quot;#4f688c&quot;&gt;&lt;br&gt;&lt;/font&gt;&lt;/div&gt;&lt;div align=&quot;left&quot;&gt;&lt;font color=&quot;#4f688c&quot;&gt;&lt;br&gt;&lt;/font&gt;&lt;/div&gt;&lt;div align=&quot;left&quot;&gt;&lt;font color=&quot;#4f688c&quot;&gt;&lt;br&gt;&lt;/font&gt;&lt;/div&gt;" style="rounded=1;whiteSpace=wrap;html=1;strokeColor=#A9C4EB;align=left;" vertex="1" parent="Mjstm2Iupr-ztOas4ZXs-35">
          <mxGeometry x="86.37349397590361" y="335.59322033898303" width="519.0481927710844" height="37.28813559322033" as="geometry" />
        </mxCell>
        <mxCell id="Mjstm2Iupr-ztOas4ZXs-56" value="&lt;font size=&quot;1&quot;&gt;&lt;u style=&quot;font-size: 14px;&quot;&gt;Bearbeiten&lt;/u&gt;&lt;/font&gt;" style="html=1;shadow=0;dashed=0;shape=mxgraph.bootstrap.rrect;rSize=5;strokeColor=none;strokeWidth=1;fillColor=none;fontColor=#0085FC;whiteSpace=wrap;align=center;verticalAlign=middle;spacingLeft=0;fontStyle=0;fontSize=16;spacing=5;" vertex="1" parent="Mjstm2Iupr-ztOas4ZXs-35">
          <mxGeometry x="523.0843373493975" y="350.0610169491526" width="88.79518072289156" height="22.82033898305085" as="geometry" />
        </mxCell>
        <mxCell id="Mjstm2Iupr-ztOas4ZXs-57" value="" style="group" vertex="1" connectable="0" parent="Mjstm2Iupr-ztOas4ZXs-4">
          <mxGeometry x="-748" y="1050" width="670" height="440" as="geometry" />
        </mxCell>
        <mxCell id="Mjstm2Iupr-ztOas4ZXs-58" value="" style="endArrow=none;html=1;rounded=0;entryX=0.002;entryY=0.158;entryDx=0;entryDy=0;entryPerimeter=0;" edge="1" parent="Mjstm2Iupr-ztOas4ZXs-57" source="Mjstm2Iupr-ztOas4ZXs-61">
          <mxGeometry width="50" height="50" relative="1" as="geometry">
            <mxPoint x="667.5783132530121" y="73.41101694915254" as="sourcePoint" />
            <mxPoint x="1.3351566265061896" y="73.41101694915264" as="targetPoint" />
          </mxGeometry>
        </mxCell>
        <mxCell id="Mjstm2Iupr-ztOas4ZXs-59" value="" style="rounded=1;whiteSpace=wrap;html=1;arcSize=2;strokeColor=#4F688C;container=1;" vertex="1" parent="Mjstm2Iupr-ztOas4ZXs-57">
          <mxGeometry x="-0.8072289156626505" width="670.8072289156627" height="439.99999999999994" as="geometry" />
        </mxCell>
        <mxCell id="Mjstm2Iupr-ztOas4ZXs-60" value="" style="endArrow=none;html=1;rounded=0;entryX=0.002;entryY=0.158;entryDx=0;entryDy=0;entryPerimeter=0;" edge="1" parent="Mjstm2Iupr-ztOas4ZXs-57" target="Mjstm2Iupr-ztOas4ZXs-61">
          <mxGeometry width="50" height="50" relative="1" as="geometry">
            <mxPoint x="667.5783132530121" y="73.41101694915254" as="sourcePoint" />
            <mxPoint x="1.3351566265061896" y="73.41101694915264" as="targetPoint" />
          </mxGeometry>
        </mxCell>
        <mxCell id="Mjstm2Iupr-ztOas4ZXs-61" value="&lt;b style=&quot;font-size: 22px;&quot;&gt;&lt;font style=&quot;font-size: 22px;&quot; color=&quot;#4f688c&quot;&gt;Prüfungstermin XXX&lt;br&gt;&lt;/font&gt;&lt;/b&gt;" style="html=1;shadow=0;dashed=0;shape=mxgraph.bootstrap.rrect;rSize=5;strokeColor=#6c8ebf;strokeWidth=1;fillColor=#dae8fc;whiteSpace=wrap;align=center;verticalAlign=middle;spacingLeft=0;fontStyle=0;fontSize=16;spacing=5;" vertex="1" parent="Mjstm2Iupr-ztOas4ZXs-57">
          <mxGeometry width="670" height="73.4128813559322" as="geometry" />
        </mxCell>
        <mxCell id="Mjstm2Iupr-ztOas4ZXs-62" value="" style="html=1;verticalLabelPosition=bottom;align=center;labelBackgroundColor=#ffffff;verticalAlign=top;strokeWidth=2;strokeColor=#7EA6E0;shadow=0;dashed=0;shape=mxgraph.ios7.icons.clock;" vertex="1" parent="Mjstm2Iupr-ztOas4ZXs-57">
          <mxGeometry x="15.175903614457832" y="83.89830508474576" width="41.33012048192771" height="35.423728813559315" as="geometry" />
        </mxCell>
        <mxCell id="Mjstm2Iupr-ztOas4ZXs-63" value="" style="html=1;verticalLabelPosition=bottom;align=center;labelBackgroundColor=#ffffff;verticalAlign=top;strokeWidth=2;strokeColor=#7EA6E0;shadow=0;dashed=0;shape=mxgraph.ios7.icons.most_viewed;pointerEvents=1" vertex="1" parent="Mjstm2Iupr-ztOas4ZXs-57">
          <mxGeometry x="13.35156626506024" y="199.26033898305084" width="43.1544578313253" height="24.468474576271188" as="geometry" />
        </mxCell>
        <mxCell id="Mjstm2Iupr-ztOas4ZXs-64" value="" style="html=1;verticalLabelPosition=bottom;align=center;labelBackgroundColor=#ffffff;verticalAlign=top;strokeWidth=2;strokeColor=#7EA6E0;shadow=0;dashed=0;shape=mxgraph.ios7.icons.location;" vertex="1" parent="Mjstm2Iupr-ztOas4ZXs-57">
          <mxGeometry x="19.720602409638552" y="159.40677966101694" width="36.785421686746986" height="34.49152542372882" as="geometry" />
        </mxCell>
        <mxCell id="Mjstm2Iupr-ztOas4ZXs-65" value="" style="html=1;verticalLabelPosition=bottom;align=center;labelBackgroundColor=#ffffff;verticalAlign=top;strokeWidth=2;strokeColor=#7EA6E0;shadow=0;dashed=0;shape=mxgraph.ios7.icons.bookmark;" vertex="1" parent="Mjstm2Iupr-ztOas4ZXs-57">
          <mxGeometry x="24.273373493975903" y="295.18033898305083" width="32.232650602409635" height="31.463728813559317" as="geometry" />
        </mxCell>
        <mxCell id="Mjstm2Iupr-ztOas4ZXs-66" value="" style="html=1;verticalLabelPosition=bottom;align=center;labelBackgroundColor=#ffffff;verticalAlign=top;strokeWidth=2;strokeColor=#7EA6E0;shadow=0;dashed=0;shape=mxgraph.ios7.icons.home;" vertex="1" parent="Mjstm2Iupr-ztOas4ZXs-57">
          <mxGeometry x="19.720602409638552" y="124.79593220338982" width="36.785421686746986" height="31.814237288135583" as="geometry" />
        </mxCell>
        <mxCell id="Mjstm2Iupr-ztOas4ZXs-67" value="&lt;font style=&quot;font-size: 16px;&quot; color=&quot;#4f688c&quot;&gt;Datum und Uhrzeit &lt;/font&gt;" style="text;html=1;align=left;verticalAlign=middle;whiteSpace=wrap;rounded=0;" vertex="1" parent="Mjstm2Iupr-ztOas4ZXs-57">
          <mxGeometry x="86.37569550930995" y="85.87737288135592" width="531.0282037239867" height="31.461864406779657" as="geometry" />
        </mxCell>
        <mxCell id="Mjstm2Iupr-ztOas4ZXs-68" value="&lt;font style=&quot;font-size: 16px;&quot; color=&quot;#4f688c&quot;&gt;Institut oder Fakultät&lt;br&gt;&lt;/font&gt;" style="text;html=1;align=left;verticalAlign=middle;whiteSpace=wrap;rounded=0;" vertex="1" parent="Mjstm2Iupr-ztOas4ZXs-57">
          <mxGeometry x="86.37569550930995" y="125.84419491525422" width="531.0282037239867" height="31.461864406779657" as="geometry" />
        </mxCell>
        <mxCell id="Mjstm2Iupr-ztOas4ZXs-69" value="&lt;font style=&quot;font-size: 16px;&quot; color=&quot;#4f688c&quot;&gt;Informationen zur Prüfung (Kommentarfeld des Buchenden)&lt;br&gt;&lt;/font&gt;" style="text;html=1;align=left;verticalAlign=middle;whiteSpace=wrap;rounded=0;" vertex="1" parent="Mjstm2Iupr-ztOas4ZXs-57">
          <mxGeometry x="86.37569550930995" y="199.26220338983052" width="531.0282037239867" height="31.461864406779657" as="geometry" />
        </mxCell>
        <mxCell id="Mjstm2Iupr-ztOas4ZXs-70" value="&lt;font style=&quot;font-size: 16px;&quot; color=&quot;#4f688c&quot;&gt;Ort an dem die Prüfung stattfindet&lt;br&gt;&lt;/font&gt;" style="text;html=1;align=left;verticalAlign=middle;whiteSpace=wrap;rounded=0;" vertex="1" parent="Mjstm2Iupr-ztOas4ZXs-57">
          <mxGeometry x="86.37569550930995" y="162.44016949152538" width="531.0282037239867" height="31.461864406779657" as="geometry" />
        </mxCell>
        <mxCell id="Mjstm2Iupr-ztOas4ZXs-71" value="&lt;font style=&quot;font-size: 16px;&quot; color=&quot;#4f688c&quot;&gt;Zugewiesene Kommentare / Aufgaben / Rolle&lt;br&gt;&lt;/font&gt;" style="text;html=1;align=left;verticalAlign=middle;whiteSpace=wrap;rounded=0;" vertex="1" parent="Mjstm2Iupr-ztOas4ZXs-57">
          <mxGeometry x="86.37569550930995" y="295.1822033898305" width="531.0282037239867" height="31.461864406779657" as="geometry" />
        </mxCell>
        <mxCell id="Mjstm2Iupr-ztOas4ZXs-72" value="" style="html=1;verticalLabelPosition=bottom;align=center;labelBackgroundColor=#ffffff;verticalAlign=top;strokeWidth=2;strokeColor=#A9C4EB;shadow=0;dashed=0;shape=mxgraph.ios7.icons.lightbulb;" vertex="1" parent="Mjstm2Iupr-ztOas4ZXs-57">
          <mxGeometry x="24.273373493975903" y="230.72406779661014" width="32.232650602409635" height="30.300338983050846" as="geometry" />
        </mxCell>
        <mxCell id="Mjstm2Iupr-ztOas4ZXs-73" value="&lt;font style=&quot;font-size: 16px;&quot; color=&quot;#4f688c&quot;&gt;Statusangabe&lt;/font&gt;" style="text;html=1;align=left;verticalAlign=middle;whiteSpace=wrap;rounded=0;" vertex="1" parent="Mjstm2Iupr-ztOas4ZXs-57">
          <mxGeometry x="86.37569550930995" y="229.56370762711856" width="531.0282037239867" height="31.461864406779657" as="geometry" />
        </mxCell>
        <mxCell id="Mjstm2Iupr-ztOas4ZXs-74" value="&lt;div&gt;&lt;font style=&quot;font-size: 15px;&quot; color=&quot;#4f688c&quot;&gt;Checkliste&lt;/font&gt;&lt;/div&gt;" style="strokeWidth=1;shadow=0;dashed=0;align=center;html=1;shape=mxgraph.mockup.buttons.button;strokeColor=#6c8ebf;mainText=;buttonStyle=round;fontSize=17;fontStyle=1;fillColor=#dae8fc;whiteSpace=wrap;" vertex="1" parent="Mjstm2Iupr-ztOas4ZXs-57">
          <mxGeometry x="56.50602409638554" y="387.7966101694915" width="104.93975903614457" height="37.28813559322033" as="geometry" />
        </mxCell>
        <mxCell id="Mjstm2Iupr-ztOas4ZXs-75" value="&lt;font color=&quot;#ffffff&quot;&gt;&lt;span style=&quot;font-size: 15px; font-weight: 400;&quot;&gt;Kontakt aufnehmen&lt;/span&gt;&lt;/font&gt;" style="strokeWidth=1;shadow=0;dashed=0;align=center;html=1;shape=mxgraph.mockup.buttons.button;strokeColor=#A680B8;mainText=;buttonStyle=round;fontSize=17;fontStyle=1;fillColor=#CDA2BE;whiteSpace=wrap;" vertex="1" parent="Mjstm2Iupr-ztOas4ZXs-57">
          <mxGeometry x="531.1566265060239" y="387.7966101694915" width="106.55421686746988" height="37.28813559322033" as="geometry" />
        </mxCell>
        <mxCell id="Mjstm2Iupr-ztOas4ZXs-76" value="" style="html=1;verticalLabelPosition=bottom;align=center;labelBackgroundColor=#ffffff;verticalAlign=top;strokeWidth=2;strokeColor=#7EA6E0;shadow=0;dashed=0;shape=mxgraph.ios7.icons.edit;" vertex="1" parent="Mjstm2Iupr-ztOas4ZXs-57">
          <mxGeometry x="26.251084337349404" y="335.59322033898303" width="30.25493975903614" height="29.83050847457627" as="geometry" />
        </mxCell>
        <mxCell id="Mjstm2Iupr-ztOas4ZXs-77" value="&lt;div&gt;&lt;br&gt;&lt;/div&gt;&lt;div&gt;&lt;br&gt;&lt;/div&gt;&lt;div align=&quot;left&quot;&gt;&lt;font color=&quot;#4f688c&quot;&gt;&lt;br&gt;&lt;/font&gt;&lt;/div&gt;&lt;div align=&quot;left&quot;&gt;&lt;font color=&quot;#4f688c&quot;&gt;eigene Notizen&lt;/font&gt;&lt;/div&gt;&lt;div align=&quot;left&quot;&gt;&lt;font color=&quot;#4f688c&quot;&gt;&lt;br&gt;&lt;/font&gt;&lt;/div&gt;&lt;div align=&quot;left&quot;&gt;&lt;font color=&quot;#4f688c&quot;&gt;&lt;br&gt;&lt;/font&gt;&lt;/div&gt;&lt;div align=&quot;left&quot;&gt;&lt;font color=&quot;#4f688c&quot;&gt;&lt;br&gt;&lt;/font&gt;&lt;/div&gt;&lt;div align=&quot;left&quot;&gt;&lt;font color=&quot;#4f688c&quot;&gt;&lt;br&gt;&lt;/font&gt;&lt;/div&gt;" style="rounded=1;whiteSpace=wrap;html=1;strokeColor=#A9C4EB;align=left;" vertex="1" parent="Mjstm2Iupr-ztOas4ZXs-57">
          <mxGeometry x="86.37349397590361" y="335.59322033898303" width="519.0481927710844" height="37.28813559322033" as="geometry" />
        </mxCell>
        <mxCell id="Mjstm2Iupr-ztOas4ZXs-78" value="&lt;font size=&quot;1&quot;&gt;&lt;u style=&quot;font-size: 14px;&quot;&gt;Bearbeiten&lt;/u&gt;&lt;/font&gt;" style="html=1;shadow=0;dashed=0;shape=mxgraph.bootstrap.rrect;rSize=5;strokeColor=none;strokeWidth=1;fillColor=none;fontColor=#0085FC;whiteSpace=wrap;align=center;verticalAlign=middle;spacingLeft=0;fontStyle=0;fontSize=16;spacing=5;" vertex="1" parent="Mjstm2Iupr-ztOas4ZXs-57">
          <mxGeometry x="523.0843373493975" y="350.0610169491526" width="88.79518072289156" height="22.82033898305085" as="geometry" />
        </mxCell>
        <mxCell id="Mjstm2Iupr-ztOas4ZXs-79" value="&lt;font size=&quot;1&quot; color=&quot;#4f688c&quot;&gt;&lt;b style=&quot;font-size: 29px;&quot;&gt;Buchungskalender&lt;/b&gt;&lt;/font&gt;" style="text;html=1;align=center;verticalAlign=middle;whiteSpace=wrap;rounded=0;" vertex="1" parent="Mjstm2Iupr-ztOas4ZXs-4">
          <mxGeometry x="-780" y="-65" width="170" height="60" as="geometry" />
        </mxCell>
        <mxCell id="Mjstm2Iupr-ztOas4ZXs-80" value="&lt;font size=&quot;1&quot; color=&quot;#4f688c&quot;&gt;&lt;span style=&quot;font-weight: normal; font-size: 13px;&quot;&gt;Import und Export&lt;/span&gt;&lt;/font&gt;" style="strokeWidth=1;shadow=0;dashed=0;align=center;html=1;shape=mxgraph.mockup.buttons.button;strokeColor=#6c8ebf;mainText=;buttonStyle=round;fontSize=17;fontStyle=1;fillColor=#dae8fc;whiteSpace=wrap;" vertex="1" parent="Mjstm2Iupr-ztOas4ZXs-4">
          <mxGeometry x="-801" y="1530" width="110" height="30" as="geometry" />
        </mxCell>
        <mxCell id="Mjstm2Iupr-ztOas4ZXs-81" value="" style="edgeStyle=orthogonalEdgeStyle;rounded=0;orthogonalLoop=1;jettySize=auto;html=1;" edge="1" parent="Mjstm2Iupr-ztOas4ZXs-4" source="Mjstm2Iupr-ztOas4ZXs-82" target="Mjstm2Iupr-ztOas4ZXs-83">
          <mxGeometry relative="1" as="geometry" />
        </mxCell>
        <mxCell id="Mjstm2Iupr-ztOas4ZXs-82" value="Anmerkung von Philipp und Melanie: &lt;br&gt;Ist der Button &quot;Termin ablehnen&quot; an dieser Stelle wirklich sinnvoll?&lt;br&gt;Sollte die Kommunikation darüber nicht außerhalb des Buchungstools erfolgen?" style="text;whiteSpace=wrap;html=1;fillColor=#d5e8d4;strokeColor=#82b366;" vertex="1" parent="Mjstm2Iupr-ztOas4ZXs-4">
          <mxGeometry x="-60" y="160" width="220" height="110" as="geometry" />
        </mxCell>
        <mxCell id="Mjstm2Iupr-ztOas4ZXs-83" value="Statt &quot;Termin ablehnen&quot; könnte hier ein Button &quot;Mitteilung&quot; an den Terminverantwortlichen (Service-Team-Kollege) stehen." style="text;whiteSpace=wrap;html=1;fillColor=#dae8fc;strokeColor=#6c8ebf;" vertex="1" parent="Mjstm2Iupr-ztOas4ZXs-4">
          <mxGeometry x="-60" y="320" width="220" height="110" as="geometry" />
        </mxCell>
      </root>
    </mxGraphModel>
  </diagram>
</mxfile>
